<?xml version='1.0' encoding='utf-8'?>
<svg xmlns:xlink="http://www.w3.org/1999/xlink" xmlns="http://www.w3.org/2000/svg" width="30.994mm" height="26.161mm" version="1.1" viewBox="0 0 109.82 92.698"> <defs> <linearGradient id="s"> <stop stop-color="#381500" offset="0"/> <stop stop-color="#662600" offset=".55406"/> <stop stop-color="#923800" offset="1"/> </linearGradient> <pattern id="d" patternTransform="matrix(.68851 .083701 -.085339 .70199 -.5 962)" xlink:href="#a"/> <pattern id="f" patternTransform="matrix(.70279 0 0 .78237 .28185 946.23)" xlink:href="#a"/> <pattern id="g" patternTransform="matrix(.9 0 0 .8 1.25 947.25)" xlink:href="#a"/> <pattern id="a" width="10" height="10" patternTransform="translate(0) scale(10)" patternUnits="userSpaceOnUse"> <circle cx="2.567" cy=".81" r=".45"/> <circle cx="3.048" cy="2.33" r=".45"/> <circle cx="4.418" cy="2.415" r=".45"/> <circle cx="1.844" cy="3.029" r=".45"/> <circle cx="6.08" cy="1.363" r=".45"/> <circle cx="5.819" cy="4.413" r=".45"/> <circle cx="4.305" cy="4.048" r=".45"/> <circle cx="5.541" cy="3.045" r=".45"/> <circle cx="4.785" cy="5.527" r=".45"/> <circle cx="2.667" cy="5.184" r=".45"/> <circle cx="7.965" cy="1.448" r=".45"/> <circle cx="7.047" cy="5.049" r=".45"/> <circle cx="4.34" cy=".895" r=".45"/> <circle cx="7.125" cy=".34" r=".45"/> <circle cx="9.553" cy="1.049" r=".45"/> <circle cx="7.006" cy="2.689" r=".45"/> <circle cx="8.909" cy="2.689" r=".45"/> <circle cx="9.315" cy="4.407" r=".45"/> <circle cx="7.82" cy="3.87" r=".45"/> <circle cx="8.27" cy="5.948" r=".45"/> <circle cx="7.973" cy="7.428" r=".45"/> <circle cx="9.342" cy="8.072" r=".45"/> <circle cx="8.206" cy="9.315" r=".45"/> <circle cx="9.682" cy="9.475" r=".45"/> <circle cx="9.688" cy="6.186" r=".45"/> <circle cx="3.379" cy="6.296" r=".45"/> <circle cx="2.871" cy="8.204" r=".45"/> <circle cx="4.59" cy="8.719" r=".45"/> <circle cx="3.181" cy="9.671" r=".45"/> <circle cx="5.734" cy="7.315" r=".45"/> <circle cx="6.707" cy="6.513" r=".45"/> <circle cx="5.73" cy="9.67" r=".45"/> <circle cx="6.535" cy="8.373" r=".45"/> <circle cx="4.37" cy="7.154" r=".45"/> <circle cx=".622" cy="7.25" r=".45"/> <circle cx=".831" cy="5.679" r=".45"/> <circle cx="1.257" cy="8.519" r=".45"/> <circle cx="1.989" cy="6.877" r=".45"/> <circle cx=".374" cy="3.181" r=".45"/> <circle cx="1.166" cy="1.664" r=".45"/> <circle cx="1.151" cy=".093" r=".45"/> <circle cx="1.151" cy="10.093" r=".45"/> <circle cx="1.302" cy="4.451" r=".45"/> <circle cx="3.047" cy="3.763" r=".45"/> </pattern> <pattern id="h" patternTransform="matrix(.65562 -.36423 1.3355 2.4039 1.25 947.25)" xlink:href="#r"/> <pattern id="z" patternTransform="matrix(.38632 .2114 -.52125 .95254 4 948)" xlink:href="#r"/> <pattern id="r" width="2" height="1" patternTransform="translate(0) scale(10)" patternUnits="userSpaceOnUse"> <rect y="-.5" width="1" height="2"/> </pattern> <pattern id="e" patternTransform="matrix(.70279 0 0 .78237 45.102 921.59)" xlink:href="#t"/> <pattern id="t" width="10" height="10" patternTransform="translate(0) scale(10)" patternUnits="userSpaceOnUse"> <circle cx="2.567" cy=".81" r=".45"/> <circle cx="3.048" cy="2.33" r=".45"/> <circle cx="4.418" cy="2.415" r=".45"/> <circle cx="1.844" cy="3.029" r=".45"/> <circle cx="6.08" cy="1.363" r=".45"/> <circle cx="5.819" cy="4.413" r=".45"/> <circle cx="4.305" cy="4.048" r=".45"/> <circle cx="5.541" cy="3.045" r=".45"/> <circle cx="4.785" cy="5.527" r=".45"/> <circle cx="2.667" cy="5.184" r=".45"/> <circle cx="7.965" cy="1.448" r=".45"/> <circle cx="7.047" cy="5.049" r=".45"/> <circle cx="4.34" cy=".895" r=".45"/> <circle cx="7.125" cy=".34" r=".45"/> <circle cx="9.553" cy="1.049" r=".45"/> <circle cx="7.006" cy="2.689" r=".45"/> <circle cx="8.909" cy="2.689" r=".45"/> <circle cx="9.315" cy="4.407" r=".45"/> <circle cx="7.82" cy="3.87" r=".45"/> <circle cx="8.27" cy="5.948" r=".45"/> <circle cx="7.973" cy="7.428" r=".45"/> <circle cx="9.342" cy="8.072" r=".45"/> <circle cx="8.206" cy="9.315" r=".45"/> <circle cx="9.682" cy="9.475" r=".45"/> <circle cx="9.688" cy="6.186" r=".45"/> <circle cx="3.379" cy="6.296" r=".45"/> <circle cx="2.871" cy="8.204" r=".45"/> <circle cx="4.59" cy="8.719" r=".45"/> <circle cx="3.181" cy="9.671" r=".45"/> <circle cx="5.734" cy="7.315" r=".45"/> <circle cx="6.707" cy="6.513" r=".45"/> <circle cx="5.73" cy="9.67" r=".45"/> <circle cx="6.535" cy="8.373" r=".45"/> <circle cx="4.37" cy="7.154" r=".45"/> <circle cx=".622" cy="7.25" r=".45"/> <circle cx=".831" cy="5.679" r=".45"/> <circle cx="1.257" cy="8.519" r=".45"/> <circle cx="1.989" cy="6.877" r=".45"/> <circle cx=".374" cy="3.181" r=".45"/> <circle cx="1.166" cy="1.664" r=".45"/> <circle cx="1.151" cy=".093" r=".45"/> <circle cx="1.151" cy="10.093" r=".45"/> <circle cx="1.302" cy="4.451" r=".45"/> <circle cx="3.047" cy="3.763" r=".45"/> </pattern> <linearGradient id="v" x1="119.54" x2="117.62" y1="1001.6" y2="1001.9" gradientTransform="translate(-19.233 -3.8006)" gradientUnits="userSpaceOnUse"> <stop stop-color="#381500" offset="0"/> <stop stop-color="#662600" offset=".60366"/> <stop stop-color="#923800" offset="1"/> </linearGradient> <linearGradient id="u" x1="119.88" x2="121.2" y1="1029.3" y2="1031.3" gradientTransform="translate(-50.406 -31.129)" gradientUnits="userSpaceOnUse"> <stop stop-color="#381500" offset="0"/> <stop stop-color="#662600" offset=".90582"/> <stop stop-color="#923800" offset="1"/> </linearGradient> <linearGradient id="w" x1="133.46" x2="137.35" y1="1030.9" y2="1043.4" gradientTransform="translate(-40.6 -35.088)" gradientUnits="userSpaceOnUse"> <stop stop-color="#381500" offset="0"/> <stop stop-color="#662600" offset=".1437"/> <stop stop-color="#923800" offset="1"/> </linearGradient> <linearGradient id="x" x1="17.869" x2="15.411" y1="1005.8" y2="1007" gradientUnits="userSpaceOnUse"> <stop stop-color="#381500" offset="0"/> <stop stop-color="#662600" offset=".64113"/> <stop stop-color="#923800" offset="1"/> </linearGradient> <linearGradient id="y" x1="54.593" x2="52.598" y1="1016.6" y2="1016.8" gradientUnits="userSpaceOnUse" xlink:href="#s"/> <radialGradient id="c" cx="83.222" cy="1033.9" r="2.125" gradientTransform="matrix(-2.3528 -.16229 .28539 -4.1376 -32.897 5300.5)" gradientUnits="userSpaceOnUse"> <stop stop-color="#220d00" offset="0"/> <stop stop-color="#441900" offset=".55406"/> <stop stop-color="#7c3000" offset="1"/> </radialGradient> <radialGradient id="b" cx="77.952" cy="1030.6" r="1.8404" gradientTransform="matrix(-2.6272 .41571 -.69732 -4.4069 988.67 5519.3)" gradientUnits="userSpaceOnUse" xlink:href="#s"/> </defs> <g transform="translate(.92281 -961.42)"> <path d="m8 1036.4 0.5-43.625-4.375-1.125c-1.038-1.7349-0.5744-2.9692 0.5-4l57.25-22c1.375-0.63915 2.75-0.2705 4.125 0l37.625 7.75c1.4053 1.0606 1.7015 2.343 0.75 3.875l-4.75 3.25 0.25 41.875-3.5 2.125-4.125-1-0.125-31-22.375 13.5v10.875l-3.75 1.625-3.5-1 0.125-7.375-8 4.125 0.125 33.125-3.75 2.25-5.875-1.5 0.5-33.5-28-9.4375-0.25 31.938-3.375 1.25z" fill="#a43f00" fill-rule="evenodd" stroke="#f0f" stroke-width=".35433"/> <path d="m62.375 1009.9 0.125 7.625 3.375 1c0.37376-2.7035 0.06186-4.6817 0-10.125z" fill="url(#b)" fill-rule="evenodd"/> <path d="m62.375 1009.9 0.125 7.625 3.375 1c0.37376-2.7035 0.06186-4.6817 0-10.125z" fill="url(#h)" fill-rule="evenodd" opacity=".332"/> <path d="m66.125 1018.5 3.875-2-0.25-10.875-4 3z" fill="url(#c)" fill-rule="evenodd"/> <path d="m66.125 1018.5 3.875-2-0.25-10.875-4 3z" fill="url(#z)" fill-rule="evenodd" opacity=".455"/> <g fill-rule="evenodd"> <path d="m51.545 1006.2c2.2665 13.543 1.2218 29.201 1.5251 42.083l1.4696-1.4322-0.16523-41.269c-0.94332 0.8546-2.1124 0.6678-2.8295 0.6174z" fill="url(#y)"/> <path d="m14.27 995.37c1.6607 14.3 1.214 29.211 1.5251 42.083l1.4071-0.7447-0.06202-31.787-1.4438-0.5002 0.27804-8.9814c-0.94332 0.0421-0.98744-0.0197-1.7045-0.0701z" fill="url(#x)"/> </g> <g fill="url(#f)" fill-rule="evenodd" opacity=".354"> <path d="m51.545 1006.2c2.2665 13.543 1.2218 29.201 1.5251 42.083l1.4696-1.4322-0.16523-41.269c-0.94332 0.8546-2.1124 0.6678-2.8295 0.6174z"/> <path d="m14.27 995.37c1.6607 14.3 1.214 29.211 1.5251 42.083l1.4071-0.7447-0.06202-31.787-1.4438-0.5002 0.27804-8.9814c-0.94332 0.0421-0.98744-0.0197-1.7045-0.0701z"/> </g> <path d="m96.304 982c-0.89045 3.0642-1.1909 6.8354-1.4142 9.8995-1.3876 11.162-0.59819 21.452-0.88389 32.173l-1.8562-0.2652 0.17678-31.378 1.9445-1.1491-0.17678-8.0433z" fill="url(#w)" fill-rule="evenodd"/> <path d="m96.304 982c-0.89045 3.0641-1.1909 6.8354-1.4142 9.8995-1.3876 11.162-0.59819 21.452-0.88388 32.173l-1.8562-0.2652 0.17678-31.378 1.9445-1.149-0.17678-8.0433z" fill="url(#d)" fill-rule="evenodd" opacity=".42"/> <path d="m96.678 982.03c2.2665 13.543 0.90929 28.764 1.2126 41.646l1.4696-1.4322-0.16524-41.269c-1.1308 0.4171-1.7374 0.6053-2.517 1.0549z" fill="url(#v)" fill-rule="evenodd"/> <path d="m96.678 982.03c2.2665 13.543 0.90929 28.764 1.2126 41.646l1.4696-1.4322-0.16523-41.269c-1.1308 0.4171-1.7374 0.6053-2.517 1.0549z" fill="url(#e)" fill-rule="evenodd" opacity=".323"/> <path d="m54.889 1006.9 0.0518 4.4257c8.9511-5.9637 21.617-15.243 39.012-25.124l-0.0843-2.1056z" fill="url(#u)" fill-rule="evenodd"/> <path d="m54.889 1006.9 0.05178 4.4257c8.9511-5.9637 21.617-15.243 39.012-25.124l-0.08426-2.1056z" fill="url(#g)" fill-rule="evenodd" opacity=".467"/> <path transform="translate(0 946.06)" d="m63.203 18.917c-1.0887 0.08298-1.4492 0.30027-2.1727 0.56242-18.923 6.8575-37.324 13.906-56.946 21.275-0.60175 0.12087-1.4825 1.6001-1.4632 2.7442 0.023974 1.4206 0.68946 2.6695 1.3145 2.7864 1.31 0.41836 2.2626 0.74821 3.5725 1.1666v42.241s-0.022321 0.70637 0.089286 0.95191c0.162 0.3564 0.6034 0.6331 0.90174 0.73817 1.4543 0.51219 2.2599 0.73046 4.0492 1.3944 0.19002 0.04619 0.84918 0.32344 1.3181 0.33301 0.48501 0.0099 0.85659-0.06865 1.2625-0.28697 0.89996-0.40939 1.1188-0.56641 2.1546-1.0254 0.40058-0.19112 0.77532-0.52135 0.83247-0.82163 0.13127-0.68974 0.22306-1.0022 0.24872-2.2668l-0.04018-28.909c8.679 3.252 17.546 6.2002 26.287 9.3272l-0.04685 32.395s-2e-3 0.89751 0.1766 1.1207c0.29092 0.36365 0.66007 0.49935 1.0224 0.60479 1.4301 0.41615 2.3774 0.64256 4.1352 1.0733 0.26207 0.0554 0.95597 0.19063 1.2007 0.19343 0.24473 3e-3 0.57601-0.12695 0.87177-0.3112 0.80388-0.50177 1.4979-0.99854 2.2962-1.6072 0.60497-0.48738 0.88543-0.63234 1.0763-1.0992 0.11357-0.27781 0.09781-0.52612 0.09781-1.6876v-31.251c2.2832-1.2858 4.0852-2.2745 6.3684-3.5602-0.04135 2.1514-0.01814 3.809 0.0046 5.8488 0.0041 0.36622 0.08395 0.67695 0.27604 0.99261 0.15643 0.25704 0.47733 0.31729 0.81366 0.43009 0.6456 0.21653 1.6072 0.54236 2.2568 0.73929 0.4119 0.12487 0.82494 0.26369 1.1642 0.21043 0.4861-0.07633 0.90584-0.33333 1.419-0.57659 0.3206-0.15196 1.5109-0.84159 1.8432-0.99324 0.40021-0.18265 0.40529-0.27869 0.56264-0.48751 0.17208-0.22837 0.20826-0.5083 0.20856-0.91366 0.0025-3.3924 0.06416-6.9456 0.06416-10.104 7.3709-4.1508 13.843-8.6225 21.214-12.773l-0.03157 29.665s-0.05297 0.6374 0.22097 0.96464c0.24099 0.28788 1.0772 0.51383 1.0772 0.51383l2.6152 0.49103c0.01369-0.03648 0.5098 0.10511 0.98062 0.08885 0.42649-0.01473 0.97798-0.29209 1.3765-0.50122 0.48946-0.30556 1.1377-0.66645 1.5852-0.99906 0.20906-0.15538 0.62394-0.50827 0.76618-0.78187 0.18398-0.3539 0.19674-0.51325 0.21249-0.9129 0-13.798 0.17344-27.137 0.17344-41.523 1.603-0.91057 2.2857-1.3962 3.8887-2.3067 0.578-0.31965 0.95671-2.0251 0.82993-3.1606-0.2797-2.5052-2.2762-2.4938-3.6617-2.8335-12.858-2.4686-25.054-4.7921-36.22-6.9358-0.77576-0.1684-1.5553-0.27646-2.2463-0.22379zm0.15523 0.89293c0.4857-0.05308 2.5037 0.20173 2.5037 0.20173l35.332 7.5173s1.0449 0.11588 1.0554 0.35704c0.0134 0.30811-0.79243 0.6485-0.79243 0.6485l-47.857 26.197s-0.99366 0.64173-1.6509 0.58329c-0.65729-0.05844-1.2296-0.32743-1.2296-0.32743s-42.108-12.737-42.643-12.915c-0.44643-0.13393-1.2442-0.13855-1.2169-0.46815 0.03442-0.41439 1.3128-0.65841 2.4736-1.0564 0.63404-0.23776 42.629-16.58 52.032-20.088 0.83295-0.3101 1.3321-0.57696 1.9938-0.64928zm40.057 8.6845c0.4958-0.27192 0.81695 0.53525 0.80022 1.0709-0.0126 0.40329-0.0594 1.0442-0.72304 1.4696-15.204 8.7558-34.559 19.517-49.491 27.803-0.30499 0.21891-0.91877-0.05369-1.2371-0.96784-0.16983-0.48775 0.22278-1.282 0.52148-1.6536 16.216-8.8701 33.571-18.655 50.13-27.722zm-4.5654 6.9122 0.06314 40.721c-0.61613 0.44501-1.6925 1.2637-1.9549 1.428 0-12.985-0.15649-27.558-0.21174-40.954 0.70122-0.39833 1.4023-0.79698 2.1035-1.1953zm-3.1641 1.7988 0.16797 40.465c-0.89165-0.17418-1.9394-0.30176-2.7754-0.45312v-30.666c0.50774-0.28593 1.0157-0.5715 1.5234-0.85742v-7.873c0.36125-0.20521 0.72274-0.41003 1.084-0.61523zm-40.102 30.053v-6.6684c12.994-7.3581 26.371-15.586 37.955-22.166v6.6484c-12.904 7.2656-26.289 15.616-37.955 22.186zm-49.958-24.631c14.704 4.5099 30.321 9.0654 45.171 13.636 0.50212 0.10441 0.71294 1.3662 0.67068 1.8901-0.06067 0.75215-0.64965 1.1861-0.97628 1.1102-1.9503-0.59895-4.0467-1.2514-5.8633-1.8281-13.632-4.5915-27.534-8.6977-39.056-12.535-0.54051-0.11532-0.6458-0.40661-0.67572-1.0714-0.029925-0.66477 0.43262-1.1998 0.72926-1.2019zm3.6529 5.3905c1.1419 0.36468 2.6857 0.95228 3.8276 1.317 0.0093 13.737 0.0063 28.115 0.06302 42.062-1.2333-0.43389-2.7759-0.99912-4.0296-1.477-0.076853-13.65 0.13903-28.002 0.13903-41.902zm4.9138 1.661c0.26956 0.03282 0.76159 0.33008 0.99637 0.35966l-0.0625 8.5447c0.47466 0.15283 1.0742 0.49366 1.5488 0.64648l-0.0625 31.128c-1.0031 0.60277-1.872 0.93361-2.2677 1.0843 0-11.916-0.09712-28.21-0.15249-41.763zm1.9964 8.254 0.15089-7.5354c9.6583 3.091 19.456 6.2803 28.196 9.0762l0.07667 8.5364c-9.7649-3.5368-20.192-7.0118-28.424-10.077zm30.207 1.6261c1.1744 0.35356 2.4838 0.8831 3.6021 1.2122l0.29424 41.742c-1.4396-0.29016-2.8453-0.6757-4.171-1.0178 0-13.322 0.2546-28.037 0.27463-41.936zm7.2734 0.99414c0 13.281 0.16181 27.482 0.16181 40.398-0.82126 0.68433-1.5679 1.1676-2.2818 1.5919-0.09091-13.222-0.23022-28.239-0.28295-41.662 1.3639 0.11408 2.107-0.02629 2.4029-0.32749zm15.381 0.47461v9.5014c-0.88766 0.48659-1.5862 0.877-2.3283 1.1856-0.06884-2.6353-0.10189-5.8085-0.1541-8.8393 0.82747-0.63675 1.4674-1.0859 2.4824-1.8477zm-3.5332 2.4434 0.0814 8.0805c-0.92611-0.20452-1.6756-0.43037-2.3197-0.66152l3e-6 -6.3487c0.46605-0.23186 1.3705-0.67071 2.2383-1.0703z" color="#000000" color-rendering="auto" fill-rule="evenodd" image-rendering="auto" shape-rendering="auto" solid-color="#000000" style="block-progression:tb;isolation:auto;mix-blend-mode:normal;text-decoration-color:#000000;text-decoration-line:none;text-decoration-style:solid;text-indent:0;text-transform:none;white-space:normal"/> <path d="m92.25 992.49v31.125l4.125 0.75-0.125-42.25-2.125 1.375-0.0625 7.9375z" fill="none"/> </g> </svg>