<?xml version="1.0" ?><svg xmlns="http://www.w3.org/2000/svg" width="24" height="24" viewBox="0 0 24 24" fill="none"><g clip-path="url(#clip0_2924_922)"><path d="M12 0.585785L7.29294 5.29289L8.70715 6.70711L11 4.41428L11 11L4.41423 11L6.70714 8.70712L5.29292 7.29291L0.585815 12L5.29292 16.7071L6.70714 15.2929L4.41425 13L11 13L11 19.5857L8.70715 17.2929L7.29294 18.7071L12 23.4142L16.7072 18.7071L15.2929 17.2929L13 19.5858L13 13L19.5858 13L17.2929 15.2929L18.7071 16.7071L23.4142 12L18.7071 7.29291L17.2929 8.70712L19.5857 11L13 11L13 4.41414L15.2929 6.70711L16.7072 5.29289L12 0.585785Z" fill="black"/></g><defs><clipPath id="clip0_2924_922"><rect width="24" height="24" fill="white"/></clipPath></defs></svg>