<?xml version="1.0" encoding="utf-8"?>
<!-- Generator: Adobe Illustrator 27.5.0, SVG Export Plug-In . SVG Version: 6.00 Build 0)  -->
<svg version="1.1" id="Capa_1" xmlns="http://www.w3.org/2000/svg" xmlns:xlink="http://www.w3.org/1999/xlink" x="0px" y="0px"
	 viewBox="0 0 2122 2122" style="enable-background:new 0 0 2122 2122;" xml:space="preserve">
<g>
	<path style="fill:#243265;" d="M1778.303,1057.163c0.466-0.614,0.947-1.227,1.37-1.841c0.749-1.089,1.389-2.179,1.998-3.268
		c0.294-0.523,0.635-1.046,0.894-1.57c0.798-1.609,1.47-3.218,1.949-4.828c1.091-3.666,2.076-7.344,2.967-11.033
		c23.03-88.284,4.965-168.388-33.088-270.05c-0.002,0.001-0.005,0.002-0.007,0.003c-6.129-26.497-11.152-52.674-13.325-78.275
		c-4.76-56.062-8.276-128.32-4.775-194.27c0.01,0.039,0.024,0.076,0.033,0.116c26.466-15.871,76.123-192.772,18.91-207.974
		c-0.002,0-0.005-0.003-0.007-0.003c-0.001,0-0.004,0-0.005-0.001c-37.627-9.979-202.461,35.879-387.58,2.355
		c-0.063,0.452-0.061,0.887-0.107,1.334c-0.119-0.039-0.24-0.078-0.358-0.117c0.152-0.402,0.313-0.817,0.465-1.217
		c-63.275-39.391-179.393-85.566-190.096-40.967c-5.682,23.675-13.13,50.197-23.173,79.061l-5.35-1.292
		c-12.149-2.934-24.488,4.607-27.423,16.756l-0.184,0.761c-2.477,10.257,2.562,20.584,11.487,25.337l4.082,4.081
		c-14.903,35.892-33.94,74.648-58.381,115.55l-1.091-0.092c-0.19-0.004-0.376-0.048-0.566-0.048l-1.351-0.114
		c-12.669-1.071-23.91,8.419-24.981,21.087c-0.507,5.992,1.408,11.624,4.846,16.052c-17.263,26.167-36.826,53.099-58.934,80.617
		l-11.713-2.187c-12.497-2.333-24.632,5.984-26.965,18.481c-1.513,8.104,1.496,16.007,7.177,21.232
		c-10.901,12.463-22.297,25.019-34.306,37.674c-0.502,0.528-0.978,1.05-1.481,1.579c-0.091,0.095-0.185,0.189-0.275,0.284
		c-3.521,3.691-7.116,7.332-10.745,10.946c-0.896,0.893-1.793,1.786-2.695,2.674c-3.653,3.593-7.348,7.155-11.1,10.673
		c-0.643,0.602-1.296,1.193-1.941,1.793c-3.382,3.145-6.805,6.259-10.261,9.344c-0.836,0.745-1.664,1.495-2.503,2.237
		c-0.627,0.555-1.274,1.095-1.905,1.648l-13.747-2.755c-12.466-2.498-24.709,5.658-27.207,18.123
		c-1.146,5.721,0.031,11.349,2.76,16.056c-0.816,0.631-1.632,1.26-2.451,1.887c-4.179,3.205-8.379,6.388-12.618,9.525
		c-0.352,0.261-0.71,0.516-1.062,0.776c-4.01,2.958-8.048,5.88-12.106,8.778c-1.05,0.75-2.097,1.502-3.151,2.248
		c-4.228,2.996-8.475,5.966-12.745,8.9c-0.884,0.607-1.773,1.206-2.659,1.811c-3.759,2.566-7.532,5.109-11.318,7.628
		c-0.951,0.633-1.9,1.271-2.852,1.901c-4.288,2.835-8.591,5.639-12.905,8.415c-1.131,0.728-2.266,1.451-3.398,2.175
		c-3.928,2.51-7.863,5.002-11.806,7.466c-0.626,0.391-1.25,0.788-1.877,1.178c-4.351,2.709-8.71,5.382-13.073,8.035
		c-1.264,0.769-2.53,1.537-3.795,2.301c-4.3,2.599-8.603,5.18-12.907,7.728c-0.811,0.48-1.622,0.952-2.434,1.43
		c-3.74,2.206-7.481,4.391-11.219,6.559c-1.311,0.76-2.623,1.523-3.933,2.279c-4.168,2.404-8.331,4.786-12.49,7.145
		c-126.114,71.539-245.917,122.382-278.61,170.164c-53.8,78.631-78.631,252.445-45.523,293.829c0,0-0.883,48.463,20.251,69.237
		c1.64,1.613,12.254,3.952,29.411,6.705v31.191c0,1.621,0.752,3.426,2.016,5.347c-17.503,13.773-102.771,82.141-102.771,107.06
		c0,27.768,176.29,136.768,201.509,108.777c9.223-10.236,15.849-33.045,20.555-57.851c9.352,3.38,16.789,5.59,20.784,6.065
		l16.831,0.683c-23.847,31.714-37.988,71.141-37.988,113.876c0,104.757,84.922,189.679,189.68,189.679
		c104.756,0,189.678-84.922,189.678-189.679c0-53.404-22.102-101.619-57.618-136.09l136.816-127.523l336.108-60.801
		c3.87,23.993,18.642,84.548,33.908,133.417c-21.96,30.954-34.911,68.748-34.911,109.589c0,104.757,84.922,189.679,189.679,189.679
		c104.757,0,189.678-84.922,189.678-189.679c0-42.834-14.212-82.342-38.16-114.094c2.022-3.52,3.661-6.009,4.742-6.95
		l71.321-167.945c41.118-32.749,34.819-227.377,19.915-274.075C1776.903,1058.982,1777.611,1058.072,1778.303,1057.163z"/>
	<path style="fill:#6E7ABA;" d="M1708.927,486.7c-9.696-17.326-27.233-26.823-46.549-33.261c-0.078-0.973-0.137-1.916-0.218-2.895
		c-34.099-6.173-73.767-18.73-98.451-24.21c-25.883-8.532-51.282-18.516-76.07-29.843c-0.001,0.003-0.001,0.005-0.003,0.008
		c-0.819,1.951-1.633,3.907-2.456,5.851h0.002c-1.251,2.953-4.658,4.334-7.61,3.084c-2.954-1.25-4.335-4.657-3.084-7.61
		c0.898-2.118,1.786-4.25,2.677-6.377c-40.134-19.85-82.598-46.519-122.486-72.053c-6.256,15.424-13.145,31.711-20.625,48.618
		l20.357,4.915l29.737,7.179l3.931,0.949c12.148,2.933,19.689,15.273,16.755,27.423l-0.184,0.761
		c-2.933,12.149-15.273,19.689-27.423,16.756l-14.557-3.515l-23.046-5.564l-25.216-6.088c-7.437,15.64-15.337,31.633-23.686,47.841
		l24.917,24.916l18.525,18.525l10.405,10.404c5.124,5.124,7.223,12.099,6.506,18.822c-0.012,0.238,0.031,0.465,0.012,0.705
		c-0.025,0.295-0.126,0.564-0.161,0.856c-0.041,0.24-0.085,0.476-0.134,0.714c-1.843,11.853-12.559,20.542-24.686,19.516
		l-16.023-1.354l-25.648-2.168l-42.29-3.574c-11.794,19.627-24.211,39.188-37.223,58.453l22.837,22.837l18.665,18.664l6.604,6.605
		c8.314,4.749,13.214,14.344,11.364,24.252c-2.332,12.498-14.466,20.814-26.964,18.481l-18.861-3.521l-24.339-4.544l-44.229-8.257
		c-12.974,16.048-26.41,31.602-40.297,46.495l26.212,26.211l19.993,19.994l3.054,3.053c9.442,4.396,15.103,14.817,12.972,25.454
		c-2.497,12.466-14.741,20.621-27.206,18.123l-22.043-4.417l-23.211-4.651l-65.978-13.221
		c-14.63,11.467-29.647,22.076-45.047,31.675l18.436,18.437l18.353,18.353l9.497,9.497c8.315,8.316,8.315,21.923,0,30.238
		l-2.452,2.453c-8.315,8.315-21.923,8.315-30.238,0l-9.095-9.213l-18.499-18.742l-27.696-28.058
		c-5.358,2.57-10.744,5.05-16.184,7.363c-83.918,35.665-177.506,11.284-215.521-1.553c-94.4,55.239-185.851,96.208-240.085,134.443
		c-8.676,6.116,10.688,34.484,4.057,40.509c-7.108,6.458-40.048-9.43-44.471-2.964c-4.822,7.047-9.245,14.839-13.315,23.162
		c-6.966,14.239-12.849,30.093-17.742,46.734c-18.444,62.736-22.721,136.478-17.004,176.273c1.771,12.326,4.482,21.448,8.046,25.905
		c8.626,10.789,33.908,13.543,71.334,17.687c-0.353-1.497-0.781-2.985-1.095-4.487c-0.659-3.138,1.351-6.215,4.489-6.873
		c3.138-0.659,6.214,1.352,6.873,4.489c0.579,2.759,1.295,5.502,2.014,8.245c9.92,1.129,20.579,2.415,31.878,3.983
		c0.606,0.084,1.186,0.156,1.798,0.242c-0.004-0.016-0.006-0.032-0.009-0.049c167.936,18.704,338.801,10.68,504.36-23.19
		c-0.001,0.008-0.003,0.016-0.005,0.025c22.35-4.131,46.692-9.814,71.905-16.464c53.63-14.144,111.207-32.688,162.121-50.178
		c0.592-0.203,1.201-0.409,1.791-0.612c0.003-0.015,0.006-0.029,0.01-0.044c19.701-7.293,39.274-14.937,58.672-23.012
		c28.987-12.067,58.128-25.304,81.564-46.199c50.368-44.907,65.637-115.914,92.546-177.796
		c33.08-76.076,87.353-142.806,155.094-190.692c27.021-19.102,57.902-37.353,70.036-68.138c6.485-16.451,6.703-34.603,6.833-52.285
		c0.334-45.16,0.669-90.32,1.002-135.48C1717.876,521.593,1717.782,502.523,1708.927,486.7z"/>
	<path style="fill:#7C93CA;" d="M1487.636,396.499c-0.819,1.951-1.633,3.907-2.456,5.851h0.002c-1.251,2.953-4.658,4.334-7.61,3.084
		c-2.954-1.25-4.335-4.657-3.084-7.61c0.898-2.118,1.786-4.25,2.677-6.377c-40.134-19.85-82.598-46.519-122.486-72.053
		c-6.256,15.424-13.145,31.711-20.625,48.618l20.357,4.915l29.737,7.179l3.931,0.949c12.148,2.933,19.689,15.273,16.755,27.423
		l-0.184,0.761c-2.933,12.149-15.273,19.689-27.423,16.756l-14.557-3.515l-23.046-5.564l-25.216-6.088
		c-7.437,15.64-15.337,31.633-23.686,47.841l24.917,24.916l18.525,18.525l10.405,10.404c5.124,5.124,7.223,12.099,6.506,18.822
		c-0.012,0.238,0.031,0.465,0.012,0.705c-0.025,0.295-0.126,0.564-0.161,0.856c-0.041,0.24-0.085,0.476-0.134,0.714
		c-1.843,11.853-12.559,20.542-24.686,19.516l-16.023-1.354l-25.648-2.168l-42.29-3.574c-11.794,19.627-24.211,39.188-37.223,58.453
		l22.837,22.837l18.665,18.664l6.604,6.605c8.314,4.749,13.214,14.344,11.364,24.252c-2.332,12.498-14.466,20.814-26.964,18.481
		l-18.861-3.521l-24.339-4.544l-44.229-8.257c-12.974,16.048-26.41,31.602-40.297,46.495l26.212,26.211l19.993,19.994l3.054,3.053
		c9.442,4.396,15.103,14.817,12.972,25.454c-2.497,12.466-14.741,20.621-27.206,18.123l-22.043-4.417l-23.211-4.651l-65.978-13.221
		c-14.63,11.467-29.647,22.076-45.047,31.675l18.436,18.437l18.353,18.353l9.497,9.497c8.315,8.316,8.315,21.923,0,30.238
		l-2.452,2.453c-8.315,8.315-21.923,8.315-30.238,0l-9.095-9.213l-18.499-18.742l-27.696-28.058
		c-5.358,2.57-10.744,5.05-16.184,7.363c-83.918,35.665-177.506,11.284-215.521-1.553c-94.4,55.239-185.851,96.208-240.085,134.443
		c-8.676,6.116,10.688,34.484,4.057,40.509c-7.108,6.458-40.048-9.43-44.471-2.964c-4.822,7.047-9.245,14.839-13.315,23.162
		c-6.966,14.239-12.849,30.093-17.742,46.734c-18.444,62.736-22.721,136.478-17.004,176.273c1.771,12.326,4.482,21.448,8.046,25.905
		c8.626,10.789,33.908,13.543,71.334,17.687c-0.353-1.497-0.781-2.985-1.095-4.487c-0.659-3.138,1.351-6.215,4.489-6.873
		c3.138-0.659,6.214,1.352,6.873,4.489c0.579,2.759,1.295,5.502,2.014,8.245c9.92,1.129,20.579,2.415,31.878,3.983
		c0.606,0.084,1.186,0.156,1.798,0.242c-0.004-0.016-0.006-0.032-0.009-0.049c-23.084-117.367,22.989-206.658,130.442-267.1
		c88.287-49.661,245.436-4.773,330.02-17.908c204.499-31.754,393.378-275.607,533.697-634.165
		C1499.941,402.117,1493.822,399.396,1487.636,396.499z"/>
	<g>
		<path style="fill:#E6E6E6;" d="M1021.576,843.928c-5.118,0-10.053,0.781-14.694,2.229l18.353,18.353l9.497,9.497
			c8.315,8.316,8.315,21.923,0,30.238l-2.452,2.453c-8.315,8.315-21.923,8.315-30.238,0l-9.095-9.213l-18.499-18.742
			c-1.407,4.582-2.172,9.445-2.172,14.488c0,27.229,22.072,49.302,49.301,49.302c27.229,0,49.301-22.073,49.301-49.302
			C1070.877,866.001,1048.805,843.928,1021.576,843.928z"/>
		<path style="fill:#E6E6E6;" d="M1147.799,750.207c-4.106,0-8.073,0.557-11.887,1.503l19.993,19.994l3.054,3.053
			c9.442,4.396,15.103,14.817,12.972,25.454c-2.497,12.466-14.741,20.621-27.206,18.123l-22.043-4.417l-23.211-4.651
			c4.529,22.553,24.44,39.544,48.328,39.544c27.228,0,49.301-22.073,49.301-49.302
			C1197.099,772.28,1175.026,750.207,1147.799,750.207z"/>
		<path style="fill:#E6E6E6;" d="M1241.816,625.262c-4.888,0-9.599,0.737-14.057,2.061l18.665,18.664l6.604,6.605
			c8.314,4.749,13.214,14.344,11.364,24.252c-2.332,12.498-14.466,20.814-26.964,18.481l-18.861-3.521l-24.339-4.544
			c5.609,21.064,24.758,36.604,47.589,36.604c27.229,0,49.302-22.073,49.302-49.301
			C1291.118,647.335,1269.045,625.262,1241.816,625.262z"/>
		<path style="fill:#E6E6E6;" d="M1329.985,481.45c-4.992,0-9.805,0.756-14.346,2.136l18.525,18.525l10.405,10.404
			c5.124,5.124,7.223,12.099,6.506,18.822c-0.012,0.238,0.031,0.465,0.012,0.705c-0.025,0.295-0.126,0.564-0.161,0.856
			c-0.041,0.24-0.085,0.476-0.134,0.714c-1.843,11.853-12.559,20.542-24.686,19.516l-16.023-1.354l-25.648-2.168
			c7.405,17.869,25.002,30.445,45.55,30.445c27.228,0,49.301-22.072,49.301-49.301
			C1379.285,503.523,1357.212,481.45,1329.985,481.45z"/>
		<path style="fill:#E6E6E6;" d="M1388.197,359.466c-13.092,0-24.958,5.138-33.786,13.462l29.737,7.179l3.931,0.949
			c12.148,2.933,19.689,15.273,16.755,27.423l-0.184,0.761c-2.933,12.149-15.273,19.689-27.423,16.756l-14.557-3.515l-23.046-5.564
			c3.891,23.341,24.127,41.152,48.574,41.152c27.228,0,49.301-22.073,49.301-49.301
			C1437.497,381.539,1415.424,359.466,1388.197,359.466z"/>
	</g>
	<path style="fill:#CCCCCC;" d="M1388.197,1409.838c-1.809-0.742-3.515-1.653-5.131-2.707c8.283,22.907,17.717,46.921,26.834,67.903
		c32.496-26.105,73.747-41.758,118.675-41.758c46.521,0,89.108,16.776,122.104,44.572l48.705-120.601
		C1599.553,1387.253,1410.954,1419.186,1388.197,1409.838z"/>
	<path style="fill:#CCCCCC;" d="M832.193,1492.988c-8.551,6.818-19.475,9.929-30.335,8.637l-245.716-9.972
		c0,0-1.1,22.749-4.374,50.84l69.431,10.051c31.685-23.771,71.053-37.86,113.715-37.86c30.187,0,58.706,7.085,84.041,19.63
		l144.363-121.601l0.063-0.014c-12.601,1.765-24.763,3.372-36.599,4.861L832.193,1492.988z"/>
	
		<ellipse transform="matrix(0.7071 -0.7071 0.7071 0.7071 -699.8943 1556.218)" style="fill:#22BBE9;" cx="1528.574" cy="1622.956" rx="162.356" ry="162.356"/>
	<path style="fill:#E6E6E6;" d="M1636.863,1622.956c0-59.806-48.482-108.289-108.288-108.289
		c-55.593,0-101.376,41.899-107.556,95.836c-0.02,0.179-0.047,0.356-0.068,0.536c-0.179,1.63-0.312,3.272-0.418,4.923
		c-0.023,0.363-0.063,0.722-0.083,1.087c-0.105,1.955-0.166,3.921-0.166,5.904c0,0,0,0.001,0,0.002
		c0,8.41,0.958,16.597,2.772,24.456c0.605,2.62,1.306,5.203,2.096,7.746c1.054,3.391,2.272,6.71,3.641,9.949
		c0.686,1.619,1.409,3.219,2.169,4.797c1.521,3.156,3.19,6.227,4.999,9.204c1.809,2.977,3.758,5.86,5.836,8.64
		c19.749,26.406,51.267,43.498,86.776,43.498c0.013,0,0.027-0.001,0.04-0.001c2.147-0.001,4.275-0.081,6.392-0.206
		c0.639-0.037,1.272-0.097,1.908-0.145c1.542-0.117,3.075-0.263,4.599-0.444c0.642-0.077,1.283-0.156,1.922-0.245
		c1.693-0.233,3.372-0.506,5.039-0.816c0.379-0.07,0.761-0.128,1.137-0.202c4.32-0.854,8.547-1.963,12.664-3.316
		c0.137-0.045,0.274-0.093,0.411-0.139c2.865-0.955,5.674-2.033,8.426-3.215c0.351-0.151,0.684-0.329,1.032-0.483
		c2.413-1.068,4.793-2.196,7.11-3.431c0.315-0.169,0.619-0.358,0.933-0.53c2.346-1.28,4.65-2.626,6.887-4.071
		c0.21-0.136,0.41-0.281,0.619-0.418c2.341-1.536,4.628-3.147,6.839-4.855c0.083-0.064,0.163-0.131,0.246-0.195
		c2.203-1.706,4.312-3.523,6.375-5.389c0.301-0.272,0.598-0.545,0.895-0.821C1623.419,1682.562,1636.863,1654.364,1636.863,1622.956
		z"/>
	<path style="fill:#CCCCCC;" d="M1344.568,512.516l-10.405-10.404l-18.525-18.525l-24.917-24.916l-70.608-70.608l-81.994-19.797
		c-1.891-0.457-3.624-1.208-5.269-2.085l4.082,4.081l131.023,131.024l0.583,0.583l61.46,5.194
		c12.429,1.051,21.737,11.902,21.075,24.276C1351.791,524.615,1349.693,517.64,1344.568,512.516z"/>
	<path style="fill:#CCCCCC;" d="M1246.423,645.988l-18.665-18.664l-22.837-22.837l-67.285-67.286l-65.985-5.577
		c-2.376-0.201-4.587-0.86-6.692-1.718l105.977,105.977l74.975,13.997c2.59,0.484,4.943,1.472,7.116,2.714L1246.423,645.988z"/>
	<path style="fill:#CCCCCC;" d="M1155.905,771.704l-19.993-19.994l-26.212-26.211l-66.418-66.417l-67.002-12.509
		c-3.897-0.727-7.313-2.487-10.201-4.833c0.138,0.141,0.264,0.29,0.405,0.43l111.533,115.324l0.389,0.401l75.402,15.11
		c1.828,0.366,3.527,0.997,5.151,1.753L1155.905,771.704z"/>
	<path style="fill:#CCCCCC;" d="M1034.732,874.006l-9.497-9.497l-18.353-18.353l-18.436-18.437l-50.903-50.902l-72.612-14.551
		c-4.361-0.874-8.146-2.99-11.181-5.842c0.081,0.083,0.141,0.182,0.222,0.264l92.78,93.994l27.696,28.058l18.499,18.742l9.095,9.213
		c8.315,8.315,21.923,8.315,30.238,0l2.452-2.453C1043.047,895.929,1043.047,882.322,1034.732,874.006z"/>
	<path style="fill:#243265;" d="M610.849,1038.389c-6.893,3.782-13.651,7.852-20.268,12.216c-2.677,1.766-3.415,5.366-1.65,8.042
		c1.765,2.676,5.365,3.415,8.042,1.65h0.002c6.351-4.19,12.84-8.097,19.46-11.729c2.81-1.543,3.839-5.072,2.296-7.883
		C617.189,1037.875,613.659,1036.847,610.849,1038.389z"/>
	<path style="fill:#243265;" d="M653.95,1019.028c-7.427,2.663-14.738,5.603-21.923,8.827c-2.926,1.313-4.234,4.747-2.921,7.673
		c1.313,2.925,4.748,4.233,7.674,2.92h0.001c6.905-3.099,13.937-5.927,21.089-8.491c3.017-1.083,4.587-4.407,3.504-7.425
		C660.291,1019.514,656.967,1017.945,653.95,1019.028z"/>
	<path style="fill:#243265;" d="M571.368,1064.435c-6.153,4.82-12.162,9.924-18.019,15.319c-2.359,2.172-2.51,5.845-0.337,8.203
		c2.172,2.358,5.844,2.51,8.203,0.337c5.631-5.187,11.404-10.091,17.313-14.719c2.523-1.977,2.967-5.626,0.99-8.15
		C577.54,1062.901,573.892,1062.458,571.368,1064.435z"/>
	<path style="fill:#243265;" d="M1060.177,969.797c-6.632,3.927-13.301,7.607-19.995,11.013c-2.859,1.454-3.997,4.949-2.543,7.806
		c1.454,2.858,4.949,3.996,7.807,2.543c6.93-3.526,13.815-7.326,20.646-11.371c2.758-1.633,3.67-5.194,2.038-7.953
		C1066.496,969.076,1062.934,968.164,1060.177,969.797z"/>
	<path style="fill:#243265;" d="M536.595,1096.434c-5.343,5.75-10.492,11.738-15.415,17.935c-1.995,2.511-1.576,6.163,0.934,8.157
		c2.51,1.994,6.162,1.576,8.157-0.934c4.737-5.964,9.689-11.724,14.828-17.254c2.182-2.348,2.047-6.021-0.301-8.204
		C542.45,1093.951,538.776,1094.085,536.595,1096.434z"/>
	<path style="fill:#243265;" d="M1367.508,622.633c-2.752-1.644-6.317-0.745-7.959,2.008c-3.949,6.611-7.941,13.205-11.979,19.786
		c-1.677,2.732-0.822,6.307,1.911,7.984c2.732,1.677,6.307,0.821,7.984-1.911h0.001c4.062-6.621,8.079-13.255,12.051-19.906
		C1371.16,627.841,1370.261,624.277,1367.508,622.633z"/>
	<path style="fill:#243265;" d="M699.385,1006.393c-7.744,1.577-15.39,3.407-22.931,5.498c-3.09,0.856-4.9,4.055-4.044,7.145
		c0.857,3.09,4.055,4.9,7.145,4.044h0.001c7.274-2.017,14.658-3.785,22.145-5.31c3.142-0.64,5.17-3.705,4.53-6.846
		C705.592,1007.781,702.526,1005.753,699.385,1006.393z"/>
	<path style="fill:#243265;" d="M1343.359,662.253c-2.713-1.709-6.297-0.896-8.006,1.818c-4.1,6.51-8.248,13.01-12.445,19.503
		c-1.74,2.693-0.968,6.286,1.725,8.026c2.692,1.74,6.287,0.968,8.027-1.725c4.221-6.53,8.393-13.067,12.518-19.615
		C1346.886,667.547,1346.072,663.962,1343.359,662.253z"/>
	<path style="fill:#243265;" d="M1019.533,990.386c-7.083,2.96-14.18,5.586-21.28,7.848c-3.056,0.973-4.743,4.239-3.77,7.294
		c0.973,3.055,4.239,4.742,7.295,3.769c7.443-2.371,14.857-5.116,22.233-8.198c2.957-1.236,4.353-4.637,3.117-7.595
		C1025.891,990.546,1022.491,989.15,1019.533,990.386z"/>
	<path style="fill:#243265;" d="M931.397,1009.165c-3.198,0.096-6.388,0.142-9.571,0.142c-4.424,0-8.834-0.087-13.238-0.247
		c-3.205-0.116-5.896,2.388-6.012,5.592c-0.116,3.205,2.388,5.896,5.593,6.011h0.001c4.53,0.163,9.081,0.253,13.656,0.253
		c3.292,0,6.598-0.047,9.92-0.147c3.204-0.096,5.723-2.772,5.629-5.977C937.278,1011.589,934.602,1009.068,931.397,1009.165z"/>
	<path style="fill:#243265;" d="M885.704,1007.67c-7.635-0.625-15.278-1.383-22.96-2.19c-3.188-0.335-6.046,1.978-6.381,5.167
		c-0.335,3.188,1.979,6.045,5.168,6.38c7.726,0.812,15.458,1.579,23.225,2.215c3.195,0.261,5.998-2.116,6.26-5.312
		C891.278,1010.734,888.899,1007.931,885.704,1007.67z"/>
	<path style="fill:#243265;" d="M976.417,1004.01c-0.701,0.147-1.402,0.29-2.104,0.429c-6.828,1.353-13.574,2.38-20.26,3.135
		c-3.186,0.36-5.477,3.234-5.118,6.42c0.36,3.186,3.235,5.476,6.421,5.117l0,0c6.988-0.789,14.055-1.865,21.213-3.283
		c0.742-0.147,1.482-0.298,2.224-0.453c3.138-0.656,5.15-3.733,4.494-6.871C982.631,1005.365,979.554,1003.353,976.417,1004.01z"/>
	<path style="fill:#243265;" d="M1458.779,448.016c2.921,1.321,6.361,0.024,7.682-2.896h0.001c3.182-7.039,6.334-14.12,9.454-21.248
		c1.285-2.938-0.055-6.361-2.993-7.647c-2.936-1.286-6.36,0.054-7.645,2.991c-3.1,7.085-6.232,14.123-9.395,21.118
		C1454.562,443.255,1455.858,446.694,1458.779,448.016z"/>
	<path style="fill:#243265;" d="M839.678,1003.007c-7.666-0.809-15.397-1.583-23.216-2.241c-3.196-0.268-6.004,2.104-6.272,5.299
		c-0.268,3.195,2.103,6.002,5.3,6.271l0,0c7.697,0.647,15.344,1.412,22.97,2.217c3.188,0.336,6.045-1.976,6.382-5.165
		C845.179,1006.201,842.866,1003.344,839.678,1003.007z"/>
	<path style="fill:#243265;" d="M1318.286,701.302c-2.674-1.77-6.275-1.038-8.045,1.636c-4.246,6.411-8.538,12.819-12.882,19.227
		c-1.798,2.655-1.105,6.265,1.55,8.063c2.654,1.798,6.264,1.105,8.063-1.55h-0.001c4.365-6.441,8.682-12.884,12.951-19.331
		C1321.691,706.674,1320.959,703.072,1318.286,701.302z"/>
	<path style="fill:#243265;" d="M746.02,999.978c-7.887,0.597-15.693,1.42-23.415,2.476c-3.177,0.435-5.399,3.362-4.966,6.539
		c0.435,3.177,3.363,5.4,6.54,4.965c7.484-1.024,15.057-1.823,22.716-2.402c3.196-0.242,5.592-3.029,5.351-6.226
		S749.216,999.736,746.02,999.978z"/>
	<path style="fill:#243265;" d="M793.071,999.248c-5.94-0.254-11.944-0.399-18.019-0.399c-1.831,0-3.667,0.013-5.51,0.04
		c-3.207,0.047-5.767,2.684-5.72,5.89c0.046,3.206,2.684,5.766,5.891,5.72l0.001,0c1.785-0.026,3.564-0.039,5.339-0.039
		c5.892,0,11.728,0.14,17.522,0.388c3.202,0.137,5.911-2.348,6.048-5.551C798.759,1002.094,796.273,999.386,793.071,999.248z"/>
	<path style="fill:#243265;" d="M1133.969,915.486c-5.792,5.064-11.653,10.007-17.576,14.804c-2.492,2.018-2.877,5.672-0.859,8.164
		c2.017,2.492,5.672,2.876,8.165,0.859h0.001c6.043-4.894,12.016-9.931,17.911-15.087c2.413-2.11,2.659-5.777,0.548-8.191
		C1140.049,913.622,1136.382,913.376,1133.969,915.486z"/>
	<path style="fill:#243265;" d="M1098.253,944.366c-6.19,4.592-12.436,9.007-18.728,13.22c-2.665,1.784-3.379,5.39-1.594,8.054
		c1.784,2.664,5.39,3.378,8.055,1.594c6.455-4.322,12.852-8.845,19.186-13.542c2.575-1.911,3.113-5.547,1.202-8.122
		C1104.464,942.994,1100.828,942.455,1098.253,944.366z"/>
	<path style="fill:#243265;" d="M1284.275,741.259c-4.379,6.318-8.805,12.638-13.283,18.964c-1.852,2.617-1.232,6.24,1.385,8.093
		c2.618,1.852,6.241,1.232,8.094-1.386h-0.001c4.5-6.357,8.948-12.708,13.347-19.058c1.826-2.635,1.169-6.251-1.465-8.078
		C1289.717,737.968,1286.101,738.624,1284.275,741.259z"/>
	<path style="fill:#243265;" d="M1439.012,489.967c2.888,1.394,6.358,0.184,7.752-2.703c3.362-6.965,6.689-13.967,9.982-21.011
		c1.356-2.905,0.102-6.36-2.802-7.718c-2.905-1.358-6.36-0.103-7.717,2.801c-3.272,7-6.578,13.959-9.919,20.879
		C1434.914,485.102,1436.125,488.573,1439.012,489.967z"/>
	<path style="fill:#243265;" d="M1167.579,884.035c-5.435,5.418-10.957,10.761-16.559,16.007c-2.341,2.193-2.46,5.867-0.268,8.207
		c2.193,2.34,5.866,2.46,8.207,0.267h-0.001c5.692-5.332,11.301-10.759,16.819-16.258c2.271-2.264,2.276-5.939,0.012-8.21
		C1173.526,881.778,1169.85,881.772,1167.579,884.035z"/>
	<path style="fill:#243265;" d="M1229.252,815.49c-4.79,5.897-9.714,11.816-14.762,17.731c-2.081,2.439-1.792,6.104,0.648,8.185
		c2.439,2.081,6.104,1.791,8.185-0.648h-0.001c5.111-5.988,10.094-11.98,14.943-17.948c2.021-2.489,1.642-6.146-0.847-8.167
		C1234.929,812.622,1231.272,813.002,1229.252,815.49z"/>
	<path style="fill:#243265;" d="M1199.299,850.578c-5.106,5.686-10.319,11.344-15.631,16.95c-2.206,2.327-2.106,6.002,0.221,8.207
		c2.327,2.205,6.002,2.106,8.208-0.221c5.385-5.683,10.667-11.417,15.841-17.178c2.141-2.386,1.944-6.056-0.441-8.198
		C1205.112,847.995,1201.44,848.192,1199.299,850.578z"/>
	<path style="fill:#243265;" d="M1257.49,778.992c-4.463,6.061-9.101,12.211-13.903,18.417c-1.962,2.536-1.497,6.182,1.039,8.144
		c2.536,1.962,6.182,1.496,8.145-1.04h-0.001c4.859-6.279,9.552-12.501,14.069-18.636c1.9-2.582,1.348-6.216-1.233-8.117
		C1263.025,775.858,1259.391,776.41,1257.49,778.992z"/>
	<path style="fill:#243265;" d="M472.345,1274.28c0-2.536,0.05-5.073,0.15-7.611c0.125-3.204-2.369-5.903-5.572-6.029
		c-3.203-0.127-5.902,2.368-6.028,5.571c-0.107,2.688-0.161,5.378-0.161,8.069c0,5.27,0.207,10.54,0.63,15.801
		c0.256,3.196,3.054,5.579,6.25,5.323c3.196-0.256,5.58-3.055,5.324-6.251h-0.001C472.54,1284.206,472.345,1279.246,472.345,1274.28
		z"/>
	<path style="fill:#243265;" d="M1373.388,612.648c2.772,1.609,6.325,0.667,7.935-2.106c3.896-6.711,7.748-13.442,11.558-20.197
		c1.574-2.793,0.587-6.334-2.206-7.909c-2.793-1.575-6.335-0.587-7.909,2.206c-3.785,6.712-7.613,13.401-11.485,20.07
		C1369.672,607.485,1370.615,611.039,1373.388,612.648z"/>
	<path style="fill:#243265;" d="M1418.184,531.409c2.85,1.467,6.351,0.346,7.818-2.506c3.542-6.884,7.047-13.802,10.514-20.755
		c1.43-2.87,0.263-6.355-2.607-7.786c-2.87-1.43-6.355-0.264-7.785,2.606c-3.443,6.909-6.926,13.782-10.446,20.622
		C1414.211,526.441,1415.333,529.942,1418.184,531.409z"/>
	<path style="fill:#243265;" d="M507.195,1133.438c-4.412,6.532-8.574,13.243-12.459,20.107c-1.579,2.79-0.598,6.333,2.193,7.912
		c2.79,1.58,6.332,0.598,7.912-2.193c3.732-6.593,7.733-13.045,11.977-19.328c1.794-2.657,1.095-6.266-1.563-8.06
		C512.599,1130.082,508.989,1130.781,507.195,1133.438z"/>
	<path style="fill:#243265;" d="M474.993,1215.024c-3.105-0.799-6.27,1.071-7.068,4.176c-1.981,7.701-3.579,15.475-4.76,23.294
		c-0.48,3.17,1.701,6.128,4.871,6.607c3.17,0.479,6.128-1.702,6.608-4.872h0.001c1.12-7.414,2.638-14.803,4.525-22.137
		C479.968,1218.987,478.098,1215.823,474.993,1215.024z"/>
	<path style="fill:#243265;" d="M491.63,1171.767c-2.911-1.345-6.361-0.076-7.705,2.835c-3.322,7.189-6.333,14.505-9.002,21.92
		c-1.087,3.017,0.478,6.344,3.496,7.43c3.017,1.086,6.343-0.479,7.43-3.496h-0.001c2.551-7.087,5.434-14.092,8.618-20.983
		C495.81,1176.562,494.54,1173.112,491.63,1171.767z"/>
	<path style="fill:#243265;" d="M1396.302,572.31c2.812,1.539,6.341,0.507,7.881-2.305c3.722-6.799,7.402-13.625,11.041-20.481
		c1.503-2.832,0.427-6.346-2.406-7.849c-2.831-1.504-6.345-0.427-7.848,2.404c-3.617,6.813-7.274,13.595-10.973,20.351
		C1392.457,567.243,1393.489,570.771,1396.302,572.31z"/>
	<path style="fill:#F6A654;" d="M349.27,1527.509c-1.105,20.662,116.514,94.747,135.075,72.916
		c18.562-21.831,27.478-112.802,27.478-112.802l-84.904-45.832C426.919,1441.791,350.376,1506.848,349.27,1527.509z"/>
	
		<ellipse transform="matrix(0.7071 -0.7071 0.7071 0.7071 -989.9162 1018.8593)" style="fill:#22BBE9;" cx="734.914" cy="1704.364" rx="162.816" ry="162.816"/>
	<path style="fill:#E6E6E6;" d="M843.202,1704.364c0-59.807-48.482-108.29-108.288-108.29c-55.593,0-101.376,41.899-107.555,95.836
		c-0.021,0.18-0.048,0.357-0.068,0.536c-0.179,1.63-0.312,3.272-0.418,4.923c-0.023,0.363-0.063,0.723-0.083,1.087
		c-0.105,1.955-0.166,3.922-0.166,5.904c0,0.001,0,0.002,0,0.003c0,3.644,0.225,7.232,0.577,10.784
		c2.139,21.557,10.561,41.261,23.461,57.222c0.38,0.469,0.758,0.939,1.145,1.402c2.023,2.42,4.142,4.755,6.367,6.989
		c0.057,0.057,0.11,0.118,0.167,0.175c2.711,2.712,5.58,5.265,8.565,7.678c5.796,4.684,12.089,8.772,18.781,12.195
		c1.347,0.689,2.708,1.352,4.088,1.985c13.744,6.314,29.022,9.86,45.138,9.86c2.164,0,4.308-0.081,6.439-0.207
		c0.631-0.037,1.257-0.095,1.886-0.144c1.549-0.118,3.091-0.264,4.623-0.447c0.636-0.076,1.271-0.155,1.904-0.243
		c1.702-0.233,3.39-0.508,5.066-0.82c0.37-0.069,0.744-0.126,1.114-0.199c4.324-0.855,8.555-1.964,12.676-3.319
		c0.133-0.043,0.263-0.09,0.395-0.134c2.866-0.954,5.675-2.032,8.427-3.214c0.352-0.151,0.687-0.331,1.036-0.485
		c2.412-1.066,4.791-2.195,7.106-3.428c0.319-0.17,0.624-0.36,0.94-0.533c2.342-1.278,4.643-2.621,6.877-4.063
		c0.216-0.14,0.425-0.29,0.641-0.432c2.335-1.532,4.616-3.139,6.821-4.842c0.086-0.067,0.171-0.136,0.257-0.204
		c2.205-1.707,4.315-3.526,6.381-5.394c0.295-0.268,0.589-0.537,0.881-0.808C829.758,1763.975,843.202,1735.776,843.202,1704.364z"
		/>
	<path style="fill:#5861A9;" d="M1443.074,338.603c28.282,12.592,58.16,21.26,88.173,28.625
		c55.389,13.591,112.353,23.396,163.996,47.594c5.608,2.628,12.112,5.45,17.723,2.831c2.929-1.367,5.031-4.011,6.93-6.626
		c17.796-24.502,27.466-54.803,27.156-85.084c-0.129-12.482-3.291-26.97-14.562-32.336c-4.691-2.234-10.067-2.454-15.261-2.338
		c-19.21,0.43-38.065,4.892-56.934,8.533c-58.32,11.252-118.127,14.698-177.361,10.374c-15.164-1.107-30.29-2.723-45.346-4.848
		c-9.885-1.395-31.4-9.55-40.515-5.518C1376.351,308.977,1433.888,334.514,1443.074,338.603z"/>
	<path style="fill:#F6A654;" d="M1195.397,325.44c31.095,7.943,62.19,15.886,93.285,23.83c7.247,1.851,15.576,3.527,21.689-0.783
		c3.652-2.573,5.71-6.802,7.509-10.891c6.213-14.117,11.144-28.8,14.712-43.806c1.248-5.254,2.285-10.999-0.037-15.875
		c-2.213-4.648-6.98-7.445-11.532-9.849c-27.634-14.594-57.443-25.063-88.134-30.953c-13.088-2.512-28.336-3.608-38.041,5.524
		c-5.821,5.477-8.313,13.524-10.577,21.189c0,13.339-9.305,30.371-12.805,43.358C1167.046,323.583,1181.777,321.961,1195.397,325.44
		z"/>
	<path style="fill:#F6A654;" d="M1105.331,476.872c35.741,0.541,71.451,3.182,106.883,7.907c2.819,0.376,5.805,0.743,8.405-0.406
		c4.352-1.921,5.989-7.582,4.859-12.203c-1.13-4.621-4.327-8.417-7.473-11.987c-16.471-18.693-34.229-36.255-53.099-52.523
		c-6.3-5.431-17.63-19.513-26.838-13.497c-8.614,5.628-13.616,24.801-17.964,33.843c-6.839,14.221-13.678,28.442-20.518,42.664
		c-0.399,0.83-0.809,1.706-0.756,2.626C1098.988,476.029,1102.594,476.831,1105.331,476.872z"/>
	<path style="fill:#F6A654;" d="M1207.896,547.844c-6.14-0.625-46.07-7.297-47.84-1.85c-2.53,7.779,26.91,29.208,32.321,33.73
		c1.596,1.333,3.53,2.738,5.56,2.284c1.335-0.298,2.357-1.347,3.274-2.362c4.715-5.219,8.905-10.914,12.484-16.968
		c2.311-3.908,4.192-9.374,0.954-12.555C1212.919,548.425,1210.308,548.089,1207.896,547.844z"/>
	<path style="fill:#F6A654;" d="M1284.729,409.737c-6.528-1.882-36.402-14.864-38.31-5.761
		c-2.017,9.629,22.034,22.907,27.856,28.728c1.727,1.33,3.691,2.705,5.865,2.526c2.092-0.172,3.777-1.745,5.172-3.316
		c2.303-2.596,4.33-5.438,6.033-8.462c1.417-2.516,2.63-5.517,1.615-8.22C1291.755,412.022,1288.024,410.686,1284.729,409.737z"/>
	<path style="fill:#F6A654;" d="M1020.376,601.157c26.294,6.26,55.061,7.169,81.956,6.292c3.759-0.122,7.89-0.459,10.549-3.118
		c2.777-2.778,2.993-7.362,1.569-11.022c-1.424-3.661-4.182-6.616-6.878-9.472c-13.916-14.746-27.831-29.492-41.747-44.238
		c-1.403-1.487-2.916-3.041-4.896-3.553c-4.157-1.075-7.815,2.766-10.397,6.197c-8.491,11.282-16.982,22.563-25.473,33.844
		C1018.935,584.225,1003.977,597.253,1020.376,601.157z"/>
	<path style="fill:#F6A654;" d="M1125.423,680.212c-5.724-4.271-13.546-3.689-20.689-3.816c-7.333-0.13-14.651-1.217-21.706-3.225
		c-3.848-1.095-10.766-5.778-12.702-0.637c-2.707,7.192,18.308,23.095,22.867,27.229c3.38,3.064,6.917,6.089,11.122,7.86
		c1.411,0.595,3.032,1.037,4.447,0.454c0.848-0.349,1.512-1.025,2.149-1.683c2.63-2.713,5.258-5.425,7.887-8.138
		c3.797-3.917,7.785-8.211,8.566-13.61c0.106-0.733,0.148-1.499-0.088-2.202C1126.966,681.512,1126.209,680.8,1125.423,680.212z"/>
	<path style="fill:#F6A654;" d="M932.992,721.332c21.886,3.393,43.773,6.786,65.661,10.18c4.685,0.726,9.496,1.45,14.131,0.456
		c4.636-0.994,9.129-4.099,10.368-8.675c1.876-6.931-4.007-13.334-9.361-18.119c-15.653-13.986-31.306-27.971-46.959-41.957
		c-0.873-0.781-1.761-1.572-2.812-2.091c-5.439-2.691-11.186,2.796-14.896,7.6c-9.221,11.941-19.199,23.348-30.289,33.595
		c-4.178,3.86-13.396,8.291-7.415,13.961C915.904,720.533,927.196,720.433,932.992,721.332z"/>
	<path style="fill:#F6A654;" d="M998.673,792.399c-7.004-1.256-14.021-2.437-21.05-3.54c-3.399-0.534-14.998-4.281-17.663-1.754
		c-4.659,4.418,17.544,21.879,21.253,25.47c1.208,1.171,2.474,2.376,4.071,2.91c3.057,1.024,6.316-0.678,8.971-2.508
		c2.159-1.486,4.229-3.098,6.2-4.824c1.994-1.747,3.939-3.688,4.92-6.15c0.982-2.463,0.778-5.568-1.128-7.41
		C1002.789,793.183,1000.67,792.758,998.673,792.399z"/>
	<path style="fill:#F6A654;" d="M742.623,850.065c43.526,7.118,88.964,14.12,131.031,0.866c8.995-2.834,18.32-7.093,23.016-15.271
		c1.279-2.227,2.174-4.768,1.963-7.326c-0.332-4.028-3.259-7.298-6.033-10.238c-9.437-10.004-18.874-20.008-28.312-30.011
		c-4.853-5.144-9.71-10.291-14.882-15.113c-1.369-1.277-2.962-2.609-4.833-2.556c-1.621,0.046-3.002,1.127-4.262,2.148
		c-20.307,17.556-44.323,31.559-67.714,44.522c-11.964,6.629-24.1,12.938-36.286,19.147c-3.09,1.575-14.467,4.855-12.758,9.266
		C725.053,849.361,738.993,849.471,742.623,850.065z"/>
	<path style="fill:#45C1F1;" d="M1138.076,353.13c81.396,17.953,162.419,37.565,243.015,58.822
		c15.537,4.097,22.164-19.958,6.631-24.054c-80.596-21.256-161.619-40.868-243.013-58.822
		C1129.064,325.625,1122.382,349.668,1138.076,353.13z"/>
	<path style="fill:#45C1F1;" d="M1070.028,515.628c87.582,9.461,175.337,17.263,263.215,23.4c6.727,0.47,12.473-6.069,12.473-12.473
		c0-7.141-5.726-12.002-12.473-12.473c-87.878-6.137-175.633-13.939-263.215-23.4c-6.708-0.724-12.473,6.251-12.473,12.473
		C1057.555,510.501,1063.302,514.901,1070.028,515.628z"/>
	<path style="fill:#45C1F1;" d="M977.281,631.745c88.078,15.188,176.03,31.096,263.849,47.72c6.611,1.251,13.456-1.844,15.342-8.711
		c1.674-6.089-2.06-14.083-8.711-15.343c-87.818-16.625-175.771-32.532-263.847-47.72c-6.631-1.143-13.436,1.769-15.343,8.711
		C966.921,622.405,970.606,630.594,977.281,631.745z"/>
	<path style="fill:#F6A654;" d="M863.983,749.154c95.468,14.792,190.364,33.128,284.47,54.964
		c15.621,3.625,22.289-20.422,6.632-24.054c-94.107-21.836-189.003-40.172-284.47-54.965c-6.649-1.03-13.414,1.691-15.344,8.712
		C853.647,739.724,857.286,748.116,863.983,749.154z"/>
	<path style="fill:#45C1F1;" d="M1025.492,883.256c-33.875-31.488-66.774-64.007-98.654-97.513
		c-11.089-11.654-28.709,6.005-17.64,17.639c31.881,33.505,64.781,66.025,98.654,97.513
		C1019.599,911.815,1037.28,894.214,1025.492,883.256z"/>
	<path style="fill:#45C1F1;" d="M1030.892,663.922c-4.507-4.736-13.159-4.88-17.639,0c-4.663,5.08-4.809,12.586,0,17.639
		c22.738,23.89,46.222,47.059,70.418,69.471c4.788,4.435,12.964,5.094,17.638,0c4.428-4.822,5.113-12.903,0-17.639
		C1077.114,710.981,1053.631,687.812,1030.892,663.922z"/>
	<path style="fill:#45C1F1;" d="M1131.336,549.812c-4.316-4.922-13.286-4.741-17.64,0c-4.817,5.248-4.603,12.389,0,17.639
		c18.716,21.346,38.648,41.594,59.697,60.643c4.837,4.377,12.927,5.133,17.639,0c4.383-4.775,5.166-12.964,0-17.639
		C1169.983,591.406,1150.051,571.158,1131.336,549.812z"/>
	<path style="fill:#45C1F1;" d="M1293.762,495.757c4.693-4.693,4.885-12.969,0-17.639l-89.113-85.177
		c-4.868-4.654-12.799-4.839-17.638,0c-4.693,4.693-4.886,12.968,0,17.639l89.112,85.176
		C1280.991,500.41,1288.923,500.595,1293.762,495.757z"/>
	<path style="fill:#F6A654;" d="M1780.109,942.363c-3.786-42.006-11.073-83.654-21.727-124.304
		c-2.005-7.649-3.8-14.831-5.659-21.306c-0.315,0.247-0.577,0.545-0.951,0.727c-6.871,3.35-13.632,6.889-20.281,10.607l-0.001,0
		c-2.799,1.565-6.336,0.564-7.9-2.234c-1.565-2.798-0.565-6.336,2.234-7.9c6.836-3.823,13.792-7.463,20.862-10.909
		c0.9-0.439,1.846-0.544,2.781-0.502c-2.446-6.767-5.22-12.262-8.802-16.053c-7.912-8.379-19.778-8.404-40.895,4.872
		c-118.352,74.406-208.134,198.526-245.345,339.177c-3.063,11.573-5.358,24.828-3.281,36.27c1.178,6.489,3.748,12.401,8.417,17.078
		c3.642,3.648,7.956,5.922,12.637,7.195c1.298-7.562,2.757-15.131,4.391-22.698c0.676-3.135,3.765-5.127,6.899-4.45
		c3.134,0.676,5.127,3.765,4.451,6.899c-1.553,7.189-2.929,14.378-4.172,21.558c7.285-0.116,14.839-1.703,21.776-3.7
		c33.655-9.69,65.56-25.118,97.292-40.477c26.551-12.852,53.102-25.705,79.653-38.557c36.759-17.793,76.728-39.01,91.989-78.746
		C1783.191,992.215,1782.308,966.763,1780.109,942.363z"/>
	<path style="fill:#243265;" d="M1656.896,861.018L1656.896,861.018c5.747-5.043,11.615-9.941,17.604-14.685
		c2.512-1.991,2.937-5.642,0.945-8.155c-1.99-2.513-5.641-2.937-8.153-0.946c-6.145,4.867-12.163,9.89-18.055,15.059
		c-2.411,2.115-2.651,5.783-0.535,8.193C1650.817,862.894,1654.486,863.133,1656.896,861.018z"/>
	<path style="fill:#243265;" d="M1559.244,966.781c2.685,1.754,6.282,1,8.037-1.684h-0.002c4.19-6.411,8.515-12.736,12.973-18.963
		c1.866-2.607,1.264-6.233-1.343-8.1c-2.607-1.866-6.233-1.265-8.099,1.342c-4.553,6.362-8.971,12.821-13.25,19.368
		C1555.805,961.429,1556.56,965.027,1559.244,966.781z"/>
	<path style="fill:#243265;" d="M1594.021,927.747c4.724-6.03,9.577-11.953,14.559-17.76c2.087-2.434,1.806-6.099-0.628-8.187
		c-2.435-2.087-6.1-1.806-8.186,0.627c-5.095,5.94-10.057,11.997-14.886,18.159c-1.978,2.524-1.535,6.173,0.989,8.15
		C1588.394,930.714,1592.043,930.271,1594.021,927.747z"/>
	<path style="fill:#243265;" d="M1499.234,1092.112c3.026,1.058,6.336-0.539,7.395-3.565h0.001
		c2.519-7.211,5.189-14.392,8.01-21.532c1.178-2.983-0.285-6.355-3.268-7.532c-2.982-1.178-6.354,0.285-7.531,3.267
		c-2.877,7.284-5.602,14.61-8.172,21.968C1494.611,1087.744,1496.207,1091.055,1499.234,1092.112z"/>
	<path style="fill:#243265;" d="M1515.849,1048.781c2.932,1.296,6.36-0.031,7.657-2.963h0.001
		c3.091-6.996,6.328-13.942,9.708-20.828c1.411-2.878,0.224-6.356-2.654-7.768c-2.877-1.412-6.356-0.224-7.767,2.653
		c-3.449,7.027-6.752,14.113-9.906,21.25C1511.59,1044.057,1512.916,1047.484,1515.849,1048.781z"/>
	<path style="fill:#243265;" d="M1692.823,832.572c6.219-4.423,12.555-8.682,19.007-12.77c2.708-1.716,3.513-5.302,1.798-8.01
		c-1.716-2.708-5.302-3.514-8.01-1.798c-6.631,4.2-13.139,8.575-19.524,13.116c-2.614,1.858-3.225,5.482-1.368,8.095
		C1686.585,833.819,1690.208,834.43,1692.823,832.572z"/>
	<path style="fill:#243265;" d="M1535.882,1006.905c2.819,1.527,6.341,0.481,7.87-2.338h0.001
		c3.646-6.731,7.433-13.393,11.358-19.978c1.64-2.754,0.738-6.318-2.017-7.959c-2.754-1.641-6.318-0.738-7.958,2.016
		c-4.004,6.722-7.869,13.521-11.591,20.39C1532.016,1001.854,1533.064,1005.378,1535.882,1006.905z"/>
	<path style="fill:#243265;" d="M1623.92,892.906c5.245-5.576,10.615-11.027,16.109-16.343c2.303-2.23,2.364-5.905,0.135-8.209
		c-2.229-2.305-5.905-2.365-8.208-0.136c-5.629,5.444-11.127,11.025-16.495,16.733c-2.197,2.336-2.084,6.01,0.251,8.206
		C1618.049,895.355,1621.722,895.242,1623.92,892.906z"/>
	<path style="fill:#243265;" d="M1486.176,1136.633c3.104,0.807,6.274-1.054,7.081-4.157c1.92-7.38,4-14.75,6.238-22.098
		c0.933-3.067-0.796-6.31-3.863-7.244c-3.067-0.934-6.311,0.795-7.244,3.861c-2.285,7.5-4.408,15.022-6.369,22.557
		C1481.212,1132.656,1483.074,1135.826,1486.176,1136.633z"/>
	<path style="fill:#F2F2F2;" d="M1505.972,708.351c-126.685,168.265-420.411,253.336-489.8,592.25
		c-0.001,0.008-0.003,0.016-0.005,0.025c22.35-4.131,46.692-9.814,71.905-16.464c53.63-14.144,111.207-32.688,162.121-50.178
		c0.592-0.203,1.201-0.409,1.791-0.612c0.003-0.015,0.006-0.029,0.01-0.044c40.761-217.151,256.009-353.541,322.415-445.214
		c66.001-91.116,100.629-177.367,87.969-334.675c-0.078-0.973-0.137-1.916-0.218-2.895c-34.099-6.173-73.767-18.73-98.451-24.21
		c-0.043-0.009-0.089-0.021-0.131-0.03C1583.274,500.678,1576.282,614.965,1505.972,708.351z"/>
	<path style="fill:#243265;" d="M1619.026,1682.292c-19.015,16.527-43.546,26.882-70.712,26.882
		c-59.805,0-108.289-48.484-108.289-108.29c0-21.936,6.628-42.28,17.842-59.336c-19.89,17.288-33.627,41.45-36.848,68.955
		c-0.02,0.179-0.047,0.356-0.068,0.536c-0.179,1.63-0.312,3.272-0.418,4.923c-0.023,0.363-0.063,0.722-0.083,1.087
		c-0.105,1.955-0.166,3.921-0.166,5.904c0,0,0,0.001,0,0.002c0,8.41,0.958,16.597,2.772,24.456c0.605,2.62,1.306,5.203,2.096,7.746
		c1.054,3.391,2.272,6.71,3.641,9.949c0.686,1.619,1.409,3.219,2.169,4.797c1.521,3.156,3.19,6.227,4.999,9.204
		c1.809,2.977,3.758,5.86,5.836,8.64c19.749,26.406,51.267,43.498,86.776,43.498c0.013,0,0.027-0.001,0.04-0.001
		c2.147-0.001,4.275-0.081,6.392-0.206c0.639-0.037,1.272-0.097,1.908-0.145c1.542-0.117,3.075-0.263,4.599-0.444
		c0.642-0.077,1.283-0.156,1.922-0.245c1.693-0.233,3.372-0.506,5.039-0.816c0.379-0.07,0.761-0.128,1.137-0.202
		c4.32-0.854,8.547-1.963,12.664-3.316c0.137-0.045,0.274-0.093,0.411-0.139c2.865-0.955,5.674-2.033,8.426-3.215
		c0.351-0.151,0.684-0.329,1.032-0.483c2.413-1.068,4.793-2.196,7.11-3.431c0.315-0.169,0.619-0.358,0.933-0.53
		c2.346-1.28,4.65-2.626,6.887-4.071c0.21-0.136,0.41-0.281,0.619-0.418c2.341-1.536,4.628-3.147,6.839-4.855
		c0.083-0.064,0.163-0.131,0.246-0.195C1604.225,1701.19,1612.433,1692.321,1619.026,1682.292z"/>
	<path style="fill:#243265;" d="M825.365,1763.7c-19.014,16.527-43.544,26.882-70.712,26.882
		c-59.805,0-108.289-48.483-108.289-108.289c0-21.936,6.627-42.28,17.842-59.336c-19.89,17.288-33.627,41.45-36.847,68.955
		c-0.021,0.18-0.048,0.357-0.068,0.536c-0.179,1.63-0.312,3.272-0.418,4.923c-0.023,0.363-0.063,0.723-0.083,1.087
		c-0.105,1.955-0.166,3.922-0.166,5.904c0,0.001,0,0.002,0,0.003c0,3.644,0.225,7.232,0.577,10.784
		c2.139,21.557,10.561,41.261,23.461,57.222c0.38,0.469,0.758,0.939,1.145,1.402c2.023,2.42,4.142,4.755,6.367,6.989
		c0.057,0.057,0.11,0.118,0.167,0.175c2.711,2.712,5.58,5.265,8.565,7.678c5.796,4.684,12.089,8.772,18.781,12.195
		c1.347,0.689,2.708,1.352,4.088,1.985c13.744,6.314,29.022,9.86,45.138,9.86c2.164,0,4.308-0.081,6.439-0.207
		c0.631-0.037,1.257-0.095,1.886-0.144c1.549-0.118,3.091-0.264,4.623-0.447c0.636-0.076,1.271-0.155,1.904-0.243
		c1.702-0.233,3.39-0.508,5.066-0.82c0.37-0.069,0.744-0.126,1.114-0.199c4.324-0.855,8.555-1.964,12.676-3.319
		c0.133-0.043,0.263-0.09,0.395-0.134c2.866-0.954,5.675-2.032,8.427-3.214c0.352-0.151,0.687-0.331,1.036-0.485
		c2.412-1.066,4.791-2.195,7.106-3.428c0.319-0.17,0.624-0.36,0.94-0.533c2.342-1.278,4.643-2.621,6.877-4.063
		c0.216-0.14,0.425-0.29,0.641-0.432c2.335-1.532,4.616-3.139,6.821-4.842c0.086-0.067,0.171-0.136,0.257-0.204
		C810.565,1782.597,818.774,1773.729,825.365,1763.7z"/>
	<path style="fill:#5861A9;" d="M1021.576,922.205c16.002,0,28.976-12.973,28.976-28.976c0-14.761-11.046-26.918-25.317-28.72
		l9.497,9.497c8.315,8.316,8.315,21.923,0,30.238l-2.452,2.453c-8.315,8.315-21.923,8.315-30.238,0l-9.095-9.213
		C995.01,911.464,1007.022,922.205,1021.576,922.205z"/>
	<path style="fill:#5861A9;" d="M1147.799,828.484c16.002,0,28.975-12.973,28.975-28.976c0-13.186-8.816-24.294-20.87-27.804
		l3.054,3.053c9.442,4.396,15.103,14.817,12.972,25.454c-2.497,12.466-14.741,20.621-27.206,18.123l-22.043-4.417
		C1127.683,822.614,1137.046,828.484,1147.799,828.484z"/>
	<path style="fill:#5861A9;" d="M1241.816,703.539c16.004,0,28.976-12.973,28.976-28.976c0-14.431-10.56-26.364-24.368-28.576
		l6.604,6.605c8.314,4.749,13.214,14.344,11.364,24.252c-2.332,12.498-14.466,20.814-26.964,18.481l-18.861-3.521
		C1223.846,698.913,1232.28,703.539,1241.816,703.539z"/>
	<path style="fill:#5861A9;" d="M1358.961,530.752c0-14.58-10.78-26.61-24.797-28.641l10.405,10.404
		c5.124,5.124,7.223,12.099,6.506,18.822c-0.012,0.238,0.031,0.465,0.012,0.705c-0.025,0.295-0.126,0.564-0.161,0.856
		c-0.041,0.24-0.085,0.476-0.134,0.714c-1.843,11.853-12.559,20.542-24.686,19.516l-16.023-1.354
		c5.194,4.917,12.187,7.953,19.903,7.953C1345.987,559.728,1358.961,546.755,1358.961,530.752z"/>
	<path style="fill:#5861A9;" d="M1388.197,437.744c16.002,0,28.975-12.973,28.975-28.976c0-16.003-12.973-28.976-28.975-28.976
		c-1.379,0-2.723,0.129-4.049,0.315l3.931,0.949c12.148,2.933,19.689,15.273,16.755,27.423l-0.184,0.761
		c-2.933,12.149-15.273,19.689-27.423,16.756l-14.557-3.515C1367.561,431.566,1377.155,437.744,1388.197,437.744z"/>
</g>
</svg>
