<?xml version="1.0" encoding="UTF-8" standalone="no"?>
<svg
   width="64pt"
   height="64pt"
   viewBox="0 0 22.577778 22.577778"
   version="1.1"
   id="svg831"
   inkscape:version="1.1.1 (1:1.1+202109281949+c3084ef5ed)"
   sodipodi:docname="02 - Waiters.svg"
   inkscape:export-filename="/media/taufikramadhan/Data/Tr Design Studio/Project Design/TR Creative Design/Icon Design/Project Hiring/Icon Icons/013 - Drinks And Restaurants/Send/1 - Line/02 - Waiters.png"
   inkscape:export-xdpi="576"
   inkscape:export-ydpi="576"
   xmlns:inkscape="http://www.inkscape.org/namespaces/inkscape"
   xmlns:sodipodi="http://sodipodi.sourceforge.net/DTD/sodipodi-0.dtd"
   xmlns="http://www.w3.org/2000/svg"
   xmlns:svg="http://www.w3.org/2000/svg"
   xmlns:rdf="http://www.w3.org/1999/02/22-rdf-syntax-ns#"
   xmlns:cc="http://creativecommons.org/ns#"
   xmlns:dc="http://purl.org/dc/elements/1.1/">
  <defs
     id="defs825">
    <pattern
       id="EMFhbasepattern"
       patternUnits="userSpaceOnUse"
       width="6"
       height="6"
       x="0"
       y="0" />
    <pattern
       id="EMFhbasepattern-9"
       patternUnits="userSpaceOnUse"
       width="6"
       height="6"
       x="0"
       y="0" />
    <pattern
       id="EMFhbasepattern-0"
       patternUnits="userSpaceOnUse"
       width="6"
       height="6"
       x="0"
       y="0" />
    <pattern
       id="EMFhbasepattern-7"
       patternUnits="userSpaceOnUse"
       width="6"
       height="6"
       x="0"
       y="0" />
    <pattern
       id="EMFhbasepattern-2"
       patternUnits="userSpaceOnUse"
       width="6"
       height="6"
       x="0"
       y="0" />
    <pattern
       id="EMFhbasepattern-98"
       patternUnits="userSpaceOnUse"
       width="6"
       height="6"
       x="0"
       y="0" />
    <pattern
       id="EMFhbasepattern-6"
       patternUnits="userSpaceOnUse"
       width="6"
       height="6"
       x="0"
       y="0" />
    <pattern
       id="EMFhbasepattern-01"
       patternUnits="userSpaceOnUse"
       width="6"
       height="6"
       x="0"
       y="0" />
    <pattern
       id="EMFhbasepattern-07"
       patternUnits="userSpaceOnUse"
       width="6"
       height="6"
       x="0"
       y="0" />
    <pattern
       id="EMFhbasepattern-8"
       patternUnits="userSpaceOnUse"
       width="6"
       height="6"
       x="0"
       y="0" />
    <pattern
       id="EMFhbasepattern-4"
       patternUnits="userSpaceOnUse"
       width="6"
       height="6"
       x="0"
       y="0" />
    <pattern
       id="EMFhbasepattern-40"
       patternUnits="userSpaceOnUse"
       width="6"
       height="6"
       x="0"
       y="0" />
    <pattern
       id="EMFhbasepattern-08"
       patternUnits="userSpaceOnUse"
       width="6"
       height="6"
       x="0"
       y="0" />
    <pattern
       id="EMFhbasepattern-04"
       patternUnits="userSpaceOnUse"
       width="6"
       height="6"
       x="0"
       y="0" />
    <pattern
       id="EMFhbasepattern-014"
       patternUnits="userSpaceOnUse"
       width="6"
       height="6"
       x="0"
       y="0" />
    <pattern
       id="EMFhbasepattern-27"
       patternUnits="userSpaceOnUse"
       width="6"
       height="6"
       x="0"
       y="0" />
    <pattern
       id="EMFhbasepattern-09"
       patternUnits="userSpaceOnUse"
       width="6"
       height="6"
       x="0"
       y="0" />
    <pattern
       id="EMFhbasepattern-5"
       patternUnits="userSpaceOnUse"
       width="6"
       height="6"
       x="0"
       y="0" />
    <pattern
       id="EMFhbasepattern-018"
       patternUnits="userSpaceOnUse"
       width="6"
       height="6"
       x="0"
       y="0" />
  </defs>
  <sodipodi:namedview
     id="base"
     pagecolor="#ffffff"
     bordercolor="#666666"
     borderopacity="1.0"
     inkscape:pageopacity="0.0"
     inkscape:pageshadow="2"
     inkscape:zoom="6.2578125"
     inkscape:cx="48.579276"
     inkscape:cy="65.358302"
     inkscape:document-units="pt"
     inkscape:current-layer="layer1"
     showgrid="false"
     units="pt"
     inkscape:window-width="1366"
     inkscape:window-height="705"
     inkscape:window-x="0"
     inkscape:window-y="31"
     inkscape:window-maximized="1"
     inkscape:pagecheckerboard="true"
     inkscape:showpageshadow="false"
     inkscape:object-paths="true"
     inkscape:snap-intersection-paths="true"
     inkscape:snap-smooth-nodes="true"
     inkscape:snap-midpoints="true"
     showguides="true"
     inkscape:snap-bbox="true"
     inkscape:bbox-nodes="true"
     inkscape:snap-nodes="false"
     inkscape:snap-global="true"
     inkscape:document-rotation="0">
    <inkscape:grid
       type="xygrid"
       id="grid1378" />
    <sodipodi:guide
       position="0.97013831,21.607643"
       orientation="78.000048,0"
       id="guide1380"
       inkscape:locked="false" />
    <sodipodi:guide
       position="0.97013831,0.97013129"
       orientation="0,78.000005"
       id="guide1382"
       inkscape:locked="false" />
    <sodipodi:guide
       position="21.607639,0.97013129"
       orientation="-78.000048,0"
       id="guide1384"
       inkscape:locked="false" />
    <sodipodi:guide
       position="21.607639,21.607643"
       orientation="0,-78.000005"
       id="guide1386"
       inkscape:locked="false" />
  </sodipodi:namedview>
  <metadata
     id="metadata828">
    <rdf:RDF>
      <cc:Work
         rdf:about="">
        <dc:format>image/svg+xml</dc:format>
        <dc:type
           rdf:resource="http://purl.org/dc/dcmitype/StillImage" />
      </cc:Work>
    </rdf:RDF>
  </metadata>
  <g
     inkscape:label="Icon"
     inkscape:groupmode="layer"
     id="layer1"
     transform="translate(0,-274.42223)">
    <g
       id="g21151"
       style="display:inline;stroke-width:0.770032"
       transform="matrix(1.2986477,0,0,1.2986477,39.906068,-49.377455)"
       inkscape:export-filename="/media/taufikramadhan/Data/Tr Design Studio/Project Design/TR Creative Design/Icon Design/Project Hiring/Icon Icons/013 - Drinks And Restaurants/Send/4 - Filledline/02 - Waiters.png"
       inkscape:export-xdpi="576"
       inkscape:export-ydpi="576">
      <g
         id="g271997"
         style="display:inline;stroke-width:0.770032">
        <path
           style="color:#000000;fill:#d0e2ee;stroke-width:0.770032;stroke-linecap:round;stroke-linejoin:round;-inkscape-stroke:none"
           d="m -24.152344,255.6543 c -0.03349,2.6e-4 -0.06663,0.007 -0.09766,0.0195 l -1.994141,0.77734 c -0.04996,0.0194 -0.09287,0.0534 -0.123046,0.0977 -0.75884,1.11708 -1.22461,2.58084 -1.22461,4.01367 0,0.54169 0.05993,1.02458 0.314453,1.46289 0.228663,0.39379 0.662999,0.72284 1.230469,1.04883 l 0.03906,2.10742 c 0.0011,0.43523 0.361647,0.79297 0.796875,0.79297 h 6.349609 c 0.290331,0 0.53125,-0.19064 0.53125,-0.5293 h 1.585937 c 0.146169,-5.2e-4 0.264231,-0.11945 0.263672,-0.26562 v -4.88086 c 0,-1.43284 -0.477169,-2.6497 -1.224609,-3.75 -0.03018,-0.0443 -0.07309,-0.0783 -0.123047,-0.0977 l -1.996094,-0.77734 c -0.03041,-0.0124 -0.06287,-0.019 -0.0957,-0.0195 z"
           id="path174945"
           sodipodi:nodetypes="ccccscccsscccsccccc" />
        <path
           id="path240363"
           style="color:#000000;fill:#a8c2e1;fill-opacity:1;stroke-width:0.770032;stroke-linecap:round;stroke-linejoin:round;-inkscape-stroke:none"
           d="m -17.638723,265.44532 h -0.650017 c 0,0 0,-3.86738 0,-5.81729 0,-0.14652 0.118773,-0.26529 0.265286,-0.26529 h 0.119445 c 0.146513,0 0.265286,0.11877 0.265286,0.26529 0,1.93909 0,5.81729 0,5.81729 z"
           sodipodi:nodetypes="ccccccc" />
        <path
           id="path231438"
           style="color:#000000;fill:#a8c2e1;fill-opacity:1;stroke-width:0.770032;stroke-linecap:round;stroke-linejoin:round;-inkscape-stroke:none"
           d="m -20.353281,255.6738 1.995744,0.77722 c 0.04996,0.0194 0.09333,0.0534 0.123506,0.0977 0.74744,1.1003 1.224215,2.31731 1.224215,3.75015 v 4.88084 c 5.56e-4,0.14617 -0.11738,0.2651 -0.26355,0.26562 h 0.529167 c 0.146169,-5.3e-4 0.264109,-0.11945 0.26355,-0.26562 v -4.88084 c 0,-1.43284 -0.476775,-2.64985 -1.224215,-3.75015 -0.03018,-0.0443 -0.07355,-0.0783 -0.123506,-0.0977 l -1.995744,-0.77722 z"
           sodipodi:nodetypes="cccsccccscccc" />
        <path
           id="path175023"
           style="color:#000000;fill:#3a4d5c;stroke-width:0.770032;stroke-linecap:round;stroke-linejoin:round;-inkscape-stroke:none"
           d="m -18.344102,263.85731 c -0.13885,4.8e-4 -0.25117,0.11281 -0.251663,0.25166 v 1.0111 c -5.31e-4,0.13958 0.112087,0.25314 0.251663,0.25364 h 0.002 1.51442 a 0.25267545,0.25267545 0 0 0 0.251663,-0.25364 v -1.26276 z" />
        <path
           id="path252676"
           style="color:#000000;fill:#143441;fill-opacity:1;stroke-width:0.770032;stroke-linecap:round;stroke-linejoin:round;-inkscape-stroke:none"
           d="m -18.288807,263.85731 v 1.58802 h 0.65009 v -1.58802 z" />
        <path
           id="path174957"
           style="color:#000000;fill:#3a4d5c;stroke-width:0.770029;stroke-linecap:round;stroke-linejoin:round;-inkscape-stroke:none"
           d="m -19.500404,259.53665 c -0.122312,-0.46724 0.06818,-1.31204 0.277659,-1.92093 l 0.556378,-1.35355 -1.208688,-0.47055 -0.0934,-0.0191 -4.135484,3.6e-4 -0.09542,0.0191 -1.206669,0.47055 0.556377,1.35354 c 0.209703,0.60953 0.359291,1.35548 0.236285,1.82263 -0.09887,0.30049 -0.220368,0.48251 -0.360486,0.5897 -0.14184,0.1085 -0.31775,0.16004 -0.57809,0.16004 -0.137963,1.4e-4 -0.251515,0.10858 -0.257994,0.24639 -0.137525,1.54804 -0.109111,3.09504 -0.106529,4.64644 0,0.42108 0.372959,0.77446 0.778525,0.77446 h 6.203488 c 0.627951,0 0.776511,-0.48521 0.776511,-0.77449 l -0.189038,-4.45699 c 0,-0.42574 -0.334444,-0.26568 -0.708691,-0.37715 z"
           sodipodi:nodetypes="cccccccccccccccccccc" />
        <path
           id="path262868"
           style="fill:#143441;fill-opacity:1;stroke-width:2.91036;stroke-linecap:round;stroke-linejoin:round"
           d="m -75.937512,-61.537096 1.343738,0.207031 c 2.362031,0.355275 4.658173,-1.449235 4.658203,-3.933594 v -2.998047 c -3e-5,-2.486891 -2.32296,-4.397956 -4.761719,-3.919922 l -1.240232,0.185547 v -1.269531 c 0,-2.385638 -1.962015,-4.347656 -4.347656,-4.347656 h -8.998047 c -1.483344,0 -2.74085,0.799876 -3.529297,1.947265 l -0.580056,-2.035169 c -0.355866,0.93554 -0.77867,1.529948 -1.257813,1.896484 -0.548704,0.419717 -1.229208,0.619141 -2.236328,0.619141 -0.533707,5.29e-4 -0.972981,0.420023 -0.998047,0.953125 -0.348799,3.92627 -0.419772,7.850582 -0.425781,11.779297 1.476303,0.689102 3.18019,0.985074 4.671875,1.027344 v 1.160156 c -5.06e-4,1.232353 1.121186,2.354007 2.353516,2.353516 h 1.794922 c 0.194796,1.09731 1.059956,2.00286 2.207031,2.001953 h 8.998047 c 0.0026,8e-6 0.0052,8e-6 0.0078,0 1.229299,-0.0038 2.340362,-1.126593 2.339844,-2.355469 z"
           transform="matrix(0.26458334,0,0,0.26458334,0,280.06666)"
           sodipodi:nodetypes="ccccccsssccccccccccccccc" />
        <path
           id="path174963"
           style="color:#000000;fill:#ffccbc;fill-opacity:1;stroke-width:2.91036;stroke-linecap:round;stroke-linejoin:round;-inkscape-stroke:none"
           d="m -81.078125,-108.43555 c -0.064,0.004 -0.127449,0.0148 -0.189453,0.0312 l -8.636719,2.30078 -0.539062,-0.14453 c -1.671787,-0.44836 -3.435937,0.51712 -3.882813,2.18555 -0.439916,1.64233 0.569477,3.33609 2.195313,3.81641 l 0.99414,0.380856 c 0.468886,2.324209 1.950066,3.805325 3.513672,5.228515 1.293768,1.18248 2.689579,1.290482 4.347657,1.373034 0.912539,-0.04101 1.807835,-0.154333 2.576173,-0.324217 0.648473,-0.197291 1.142774,-0.592072 1.683594,-1.048828 1.68144,-1.44287 3.274575,-3.477984 3.533203,-5.347656 l 0.896484,-0.240234 c 1.671523,-0.44825 2.72031,-2.17145 2.273438,-3.83984 -0.446937,-1.66825 -2.218634,-2.63226 -3.890625,-2.1836 l -0.429687,0.0996 -3.888672,-2.16015 c -0.169269,-0.0955 -0.362699,-0.13963 -0.556641,-0.12696 z"
           transform="matrix(0.26458334,0,0,0.26458334,0,280.06666)"
           sodipodi:nodetypes="ccccccccccccccccccc" />
        <path
           style="color:#000000;fill:#3a4d5c;stroke-width:0.770029;stroke-linecap:round;stroke-linejoin:round;-inkscape-stroke:none"
           d="m -20.344388,252.38761 c 0.08367,-0.0196 0.149569,-0.0745 0.174319,-0.14546 l 0.0816,-0.22924 c 0.0014,-0.003 0.0025,-0.006 0.0037,-0.008 0.228399,-0.73256 -0.312079,-1.35264 -1.003258,-1.49406 -5.59e-4,-1.3e-4 -0.0014,-0.002 -0.0019,-0.002 -0.266883,-0.0603 -0.58647,-0.0933 -0.973586,-0.0933 l 4.4e-5,2e-5 c -0.387061,0 -0.706546,0.0328 -0.973587,0.0933 -8.55e-4,1.9e-4 -0.0011,0.002 -0.0019,0.002 -0.691179,0.14142 -1.231658,0.7615 -1.003257,1.49406 5.72e-4,0.003 0.0013,0.006 0.0019,0.008 l 0.0816,0.22925 c 0.02882,0.0825 0.112848,0.14233 0.213262,0.15177 0,0 0.898333,0.0876 1.872995,-0.13835 0.543558,0.26702 1.131568,0.22263 1.528068,0.13202 z"
           id="path174981"
           sodipodi:nodetypes="cccccccccccccccc" />
        <path
           style="color:#000000;fill:#d0e2ee;stroke-width:0.770032;stroke-linecap:round;stroke-linejoin:round;-inkscape-stroke:none"
           d="m -23.630859,256.35937 a 0.26460996,0.26460996 0 0 0 -0.265625,0.26368 c 0,0 4.1e-5,0.59003 0.216797,1.22265 0.216755,0.63263 0.688252,1.35787 1.599609,1.50977 a 0.26460996,0.26460996 0 0 0 0.08789,0 c 0.911356,-0.1519 1.382854,-0.87714 1.599609,-1.50977 0.216755,-0.63262 0.216797,-1.22265 0.216797,-1.22265 a 0.26460996,0.26460996 0 0 0 -0.265625,-0.26368 z"
           id="path174987" />
        <path
           id="path224522"
           style="color:#000000;fill:#a8c2e1;fill-opacity:1;stroke-width:2.91036;stroke-linecap:round;stroke-linejoin:round;-inkscape-stroke:none"
           d="m -89.314453,-89.601562 a 1.0001006,1.0001006 0 0 0 -1.003906,0.996093 c 0,0 0.0027,1.308811 0.371093,2.996094 0.260189,0.0353 0.530263,0.03356 0.802735,-0.01367 l 3.298828,-0.572265 c 0.693721,0.581858 1.586477,0.933593 2.556641,0.933593 0.970159,0 1.863262,-0.351886 2.558593,-0.933593 l 3.302735,0.572265 c 0.272471,0.0472 0.542546,0.04899 0.802734,0.01367 0.36837,-1.687283 0.369141,-2.996094 0.369141,-2.996094 a 1.0001006,1.0001006 0 0 0 -1.003907,-0.996093 z"
           transform="matrix(0.26458334,0,0,0.26458334,0,280.06666)" />
        <path
           style="color:#000000;fill:#dc1c4b;stroke-width:0.770032;stroke-linecap:round;stroke-linejoin:round;-inkscape-stroke:none"
           d="m -23.585937,254.95508 c -0.428939,-0.0744 -0.832032,0.26388 -0.832032,0.69922 v 0.52929 c 7e-6,0.43534 0.403136,0.77357 0.832032,0.69922 l 1.003906,-0.17383 a 0.26460996,0.26460996 0 0 0 0.21875,-0.25976 v -1.0586 a 0.26460996,0.26460996 0 0 0 -0.21875,-0.26171 z"
           id="path174993" />
        <path
           style="color:#000000;fill:#dc1c4b;stroke-width:0.770032;stroke-linecap:round;stroke-linejoin:round;-inkscape-stroke:none"
           d="m -20.486328,254.95508 -1.003906,0.17383 a 0.26460996,0.26460996 0 0 0 -0.21875,0.26171 v 1.0586 a 0.26460996,0.26460996 0 0 0 0.21875,0.25976 l 1.003906,0.17383 c 0.428895,0.0743 0.832025,-0.26388 0.832031,-0.69922 v -0.52929 c 0,-0.43534 -0.403092,-0.77364 -0.832031,-0.69922 z"
           id="path174999" />
        <path
           id="path219217"
           style="color:#000000;fill:#b01d47;fill-opacity:1;stroke-width:2.91036;stroke-linecap:round;stroke-linejoin:round;-inkscape-stroke:none"
           d="m -88.083984,-94.726562 c -0.706354,0.97666 -1.125,2.173585 -1.125,3.46289 0,1.286794 0.417239,2.481406 1.121093,3.457031 l 2.738282,-0.474609 a 1.0001006,1.0001006 0 0 0 0.826171,-0.982422 v -4 a 1.0001006,1.0001006 0 0 0 -0.826171,-0.988281 z"
           transform="matrix(0.26458334,0,0,0.26458334,0,280.06666)" />
        <path
           id="path219219"
           style="color:#000000;fill:#b01d47;fill-opacity:1;stroke-width:2.91036;stroke-linecap:round;stroke-linejoin:round;-inkscape-stroke:none"
           d="m -78.490234,-94.726562 -2.732422,0.474609 a 1.0001006,1.0001006 0 0 0 -0.826172,0.988281 v 4 a 1.0001006,1.0001006 0 0 0 0.826172,0.982422 l 2.736328,0.474609 c 0.705803,-0.975576 1.123047,-2.170354 1.123047,-3.457031 0,-1.289166 -0.418668,-2.486288 -1.126953,-3.46289 z"
           transform="matrix(0.26458334,0,0,0.26458334,0,280.06666)" />
        <path
           style="color:#000000;fill:#f0517a;stroke-width:0.770032;stroke-linecap:round;stroke-linejoin:round;-inkscape-stroke:none"
           d="m -22.037109,254.86133 c -0.581367,0 -1.056641,0.47722 -1.056641,1.05859 0,0.58137 0.475274,1.0586 1.056641,1.0586 0.581367,0 1.058593,-0.47723 1.058593,-1.0586 0,-0.58137 -0.477226,-1.05859 -1.058593,-1.05859 z"
           id="path175005" />
        <path
           style="color:#000000;fill:#ffffff;fill-opacity:0;stroke-width:0.407475;stroke-linecap:round;stroke-linejoin:round;-inkscape-stroke:none"
           d="m -22.036182,257.5072 v 0"
           id="path22338" />
        <path
           style="color:#000000;fill:#ffffff;fill-opacity:0;stroke-width:0.407475;stroke-linecap:round;stroke-linejoin:round;-inkscape-stroke:none"
           d="m -22.036182,258.30003 v 0"
           id="path22721" />
        <path
           style="color:#000000;fill:#91a9d9;stroke-width:0.770032;stroke-linecap:round;stroke-linejoin:round;-inkscape-stroke:none"
           d="m -23.623047,259.88867 c -0.435162,0 -0.794922,0.35781 -0.794922,0.79297 v 3.43945 a 0.26460996,0.26460996 0 0 0 0.265625,0.26563 h 1.058594 a 0.26460996,0.26460996 0 0 0 0.263672,-0.26563 v -3.43945 c 0,-0.43516 -0.357807,-0.79297 -0.792969,-0.79297 z"
           id="path175029" />
        <path
           style="color:#000000;fill:#d0e2ee;stroke-width:0.770032;stroke-linecap:round;stroke-linejoin:round;-inkscape-stroke:none"
           d="m -25.394531,258.84375 a 0.26460996,0.26460996 0 0 0 -0.246094,0.043 l -1.851562,1.46875 a 0.26460996,0.26460996 0 0 0 -0.09961,0.20703 c 0,0.54169 0.05924,1.02305 0.308594,1.45898 0.249358,0.43594 0.674223,0.80242 1.337891,1.1543 0.36249,0.1922 0.876511,0.29102 1.263671,0.29102 h 1.587891 a 0.26460996,0.26460996 0 0 0 0.263672,-0.26563 v -1.7207 a 0.26460996,0.26460996 0 0 0 -0.263672,-0.26563 h -0.181641 l -1.455078,-0.47656 -0.490234,-1.7168 a 0.26460996,0.26460996 0 0 0 -0.173828,-0.17773 z"
           id="path175035" />
        <path
           style="color:#000000;fill:#ffccbc;stroke-width:0.770032;stroke-linecap:round;stroke-linejoin:round;-inkscape-stroke:none"
           d="m -19.697266,261.32031 -1.054687,0.15821 a 0.26460996,0.26460996 0 0 0 -0.226563,0.26171 v 1.32227 a 0.26460996,0.26460996 0 0 0 0.226563,0.26172 l 1.068359,0.16211 c 0.415432,0.0625 0.822261,-0.25384 0.822266,-0.6875 v -0.79297 c -5e-6,-0.43512 -0.409253,-0.77091 -0.835938,-0.68555 z"
           id="path175047" />
        <path
           style="fill:#ffffff;fill-opacity:0;stroke:#000000;stroke-width:0.407475;stroke-linecap:round;stroke-linejoin:round;stop-color:#000000"
           d="M -21.242432,259.88846 Z"
           id="path25775" />
        <path
           id="path175055"
           style="color:#000000;fill:#d0e2ee;stroke-width:0.770032;stroke-linecap:round;stroke-linejoin:round;-inkscape-stroke:none"
           d="m -23.622848,259.88856 c 0.435162,0 0.792716,0.35808 0.792716,0.79324 v 3.96875 a 0.2645835,0.2645835 0 0 1 -0.26355,0.26561 h 2.380734 a 0.26460996,0.26460996 0 0 0 0.26355,-0.26561 v -3.96875 c 0,-0.43516 -0.357556,-0.79324 -0.792717,-0.79324 z" />
      </g>
      <path
         id="path5762"
         style="color:#000000;fill:#000000;stroke-width:0.770032;stroke-linecap:round;stroke-linejoin:round;-inkscape-stroke:none"
         d="m -20.906221,255.02735 c 0.143094,-0.12085 0.287047,-0.26342 0.418063,-0.40256 0.233622,-0.24811 0.461959,-0.56491 0.516764,-1.01234 l 0.237195,-0.0636 c 0.442291,-0.11857 0.71975,-0.574 0.601514,-1.01544 -0.09959,-0.37174 -0.447934,-0.61167 -0.819589,-0.60719 0.07239,-1.41654 -0.923809,-1.82851 -2.092895,-1.83814 -0.05832,-0.004 -0.116118,-0.005 -0.173633,-0.005 l 3e-6,2e-5 c -1.121555,0.0144 -2.067032,0.87522 -1.932699,1.84278 -0.366716,7.9e-4 -0.707112,0.23942 -0.805636,0.6072 -0.118237,0.44143 0.159224,0.89687 0.601514,1.01544 l 0.237195,0.0636 c 0.0548,0.44743 0.283142,0.76423 0.516764,1.01234 0.129924,0.13798 0.272541,0.27928 0.414445,0.39946 l -0.398942,-0.0693 c -0.428936,-0.0744 -0.83199,0.26384 -0.83199,0.69919 v 0.0853 l -1.826245,0.71159 c -0.04996,0.0194 -0.09281,0.0534 -0.12299,0.0977 -0.758841,1.11708 -1.224214,2.58087 -1.224214,4.0137 0,0.54169 0.05915,1.02342 0.308506,1.45935 0.240631,0.42068 0.645311,0.77611 1.269691,1.11672 l 0.0057,2.04329 c 0.0011,0.43523 0.361621,0.79272 0.796851,0.79272 h 6.349484 c 0.34288,0 0.637871,-0.22214 0.748274,-0.52917 h 1.368909 c 0.146169,-5.3e-4 0.264109,-0.11945 0.26355,-0.26562 v -4.88084 c 0,-1.43284 -0.476775,-2.64986 -1.224215,-3.75015 -0.03018,-0.0443 -0.07355,-0.0783 -0.123507,-0.0977 l -1.825728,-0.71107 v -0.0858 c 10e-7,-0.43535 -0.403056,-0.77361 -0.831991,-0.69919 z m -1.012855,-4.41316 c 0.851668,0.004 1.633829,0.5032 1.446423,1.30018 l -0.03927,0.13023 c -0.216291,0.0436 -0.470449,0.0598 -0.754992,-0.007 -3.4e-5,-0.0247 -0.0035,-0.0492 -0.01033,-0.0729 -0.04092,-0.14133 -0.189286,-0.22213 -0.330212,-0.17983 -0.865598,0.25452 -1.660554,0.24888 -1.989543,0.23203 l -0.02015,-0.10284 c -0.144406,-1.13561 0.788233,-1.29401 1.572514,-1.29708 0.04211,-0.002 0.08369,-0.003 0.125573,-0.003 z m 0.06976,1.77974 c 0.403384,0.18568 0.786223,0.23085 1.114144,0.21136 -0.02725,0.12306 0.03611,0.24827 0.151412,0.2992 0.134272,0.0591 0.290988,-0.002 0.349333,-0.13694 l 0.122473,-0.27699 0.08837,-0.0238 c 0.174734,-0.0469 0.337483,0.0491 0.379305,0.20516 0.04182,0.15615 -0.05202,0.31848 -0.226859,0.36535 l -0.42168,0.11317 c -0.122038,0.0328 -0.203859,0.14729 -0.195337,0.27337 -0.0043,0.39794 -0.152766,0.58885 -0.387056,0.83768 -0.195483,0.21789 -0.38341,0.3793 -0.626835,0.5333 -0.177296,0.0397 -0.355899,0.0637 -0.534851,0.0667 -6.88e-4,0 -0.0014,0 -0.0021,0 -0.180888,0.002 -0.361676,-0.0174 -0.546737,-0.0646 -0.247256,-0.13134 -0.442815,-0.3455 -0.630969,-0.53536 -0.237749,-0.2525 -0.384989,-0.44517 -0.384989,-0.85525 h -5.29e-4 c 2.61e-4,-0.11947 -0.07958,-0.2243 -0.194821,-0.2558 l -0.421679,-0.11317 c -0.174841,-0.0469 -0.268684,-0.2092 -0.22686,-0.36535 0.04182,-0.15611 0.204572,-0.25205 0.379305,-0.20516 l 0.08785,0.0238 0.12299,0.27699 c 0.05834,0.1346 0.215061,0.19603 0.349333,0.13694 0.134089,-0.0591 0.194564,-0.216 0.134875,-0.34985 0.515995,-0.0455 1.06648,-0.065 1.52188,-0.16071 z m -0.187585,2.99672 c 0.0012,-2e-5 0.0024,1e-5 0.0036,0 0.293657,0.002 0.525549,0.235 0.525549,0.52916 0,0.29539 -0.233783,0.52917 -0.529166,0.52917 -0.295386,0 -0.527617,-0.23378 -0.527617,-0.52917 0,-0.29538 0.232231,-0.52916 0.527617,-0.52916 z m -1.6707,0.0827 c 0.01045,1.6e-4 0.0212,10e-4 0.03204,0.003 l 0.636137,0.11059 c -0.03501,0.10488 -0.05426,0.21661 -0.05426,0.33279 0,0.11565 0.01903,0.2273 0.05374,0.33177 l -0.63562,0.11162 c -0.115613,0.0201 -0.212905,-0.0625 -0.212907,-0.17984 v -0.52916 c 0,-0.10635 0.07984,-0.18248 0.180867,-0.18087 z m 3.342949,0 c 0.10103,-0.002 0.180868,0.0745 0.180868,0.18087 v 0.52916 c -1e-6,0.11734 -0.0973,0.1999 -0.212907,0.17984 l -0.635621,-0.11162 c 0.03482,-0.10446 0.05374,-0.21613 0.05374,-0.33177 0,-0.11617 -0.01913,-0.22792 -0.05426,-0.33279 l 0.636137,-0.11059 c 0.01084,-0.002 0.02159,-0.003 0.03204,-0.003 z m 1.079004,0.97823 c -0.0996,0.21482 -0.241418,0.54252 -0.37052,0.91778 -0.229515,0.66712 -0.439869,1.48696 -0.254248,2.17971 0.140925,0.33607 0.31254,0.68649 0.558622,0.88057 0.199257,0.15242 0.435696,0.23386 0.693498,0.26199 l 0.06253,0.32195 0.0021,4.16615 c -3.44e-4,0.14968 -0.118003,0.26562 -0.267684,0.26562 h -6.349483 c -0.149726,0 -0.2673,-0.1159 -0.267684,-0.26562 l -0.0047,-1.82573 c 0.271623,0.0749 0.561052,0.11266 0.801501,0.11266 h 0.26355 v 0.65422 c -5.56e-4,0.14694 0.118681,0.26618 0.265617,0.26562 h 0.793233 v 0.26407 c -5.56e-4,0.14694 0.118681,0.26617 0.265617,0.26561 h 2.380733 c 0.146173,-5.3e-4 0.264114,-0.11944 0.26355,-0.26561 V 263.37 l 0.765845,0.11628 c 0.415432,0.0625 0.822167,-0.25364 0.822172,-0.6873 v -0.79323 c -5e-6,-0.43512 -0.40944,-0.77059 -0.836125,-0.68523 l -0.751892,0.11265 v -0.75137 c 0,-0.43516 -0.357555,-0.79324 -0.792716,-0.79324 h -2.380734 c -0.435162,0 -0.7953,0.35808 -0.7953,0.79324 v 0.15864 l -0.312126,-0.10232 -0.490409,-1.71669 c -0.04016,-0.141 -0.187337,-0.2222 -0.328145,-0.18138 -0.141,0.0402 -0.222205,0.18733 -0.181385,0.32814 l 0.529167,1.85157 c 0.02383,0.0848 0.08795,0.15175 0.171566,0.17932 0.555495,0.17856 1.670182,0.54157 1.670182,0.54157 v 1.19682 h -1.3224 c -0.275143,0 -0.793042,-0.11255 -1.015442,-0.23047 -0.612666,-0.32484 -0.942345,-0.62637 -1.127061,-0.9493 -0.184716,-0.32292 -0.238228,-0.69242 -0.238228,-1.19528 0,-1.29284 0.43068,-2.63626 1.10329,-3.65197 l 0.679028,-0.26562 c 0.09368,0.19953 0.235612,0.52197 0.364319,0.89607 0.215301,0.62579 0.369883,1.39337 0.241846,1.87121 -0.0379,0.14133 0.04619,0.28638 0.187585,0.32401 0.141327,0.0379 0.286376,-0.0457 0.324011,-0.18707 0.18562,-0.69275 -0.02421,-1.51259 -0.253731,-2.17971 -0.129021,-0.37502 -0.270933,-0.70296 -0.37052,-0.91778 l 0.378792,-0.14779 c 0.0485,0.27687 0.2613,0.49699 0.525549,0.56637 0.02069,0.23054 0.0721,0.59485 0.202572,0.97565 0.215932,0.63023 0.68448,1.35227 1.58905,1.50792 0.002,4.3e-4 0.0042,6.6e-4 0.0062,0.001 0.0014,2.4e-4 0.0028,2.9e-4 0.0041,5.3e-4 0.02845,0.005 0.0583,0.005 0.08837,0 0.911356,-0.1519 1.382631,-0.87684 1.599386,-1.50947 0.130474,-0.3808 0.181886,-0.74511 0.202571,-0.97565 0.26441,-0.0694 0.477219,-0.28978 0.525549,-0.56689 z m 1.172538,0.45837 c 0.68139,1.02071 1.103292,2.09781 1.103292,3.38894 v 3.55844 H -18.0635 c 0.0024,-0.96153 -0.0047,-1.90343 -0.0047,-2.86907 2.5e-4,-0.017 -0.0011,-0.0339 -0.0041,-0.0507 l -0.26355,-1.36322 c -0.02687,-0.14447 -0.166318,-0.23938 -0.310573,-0.21136 v 5.3e-4 c -0.143393,0.0279 -0.237078,0.16666 -0.20929,0.31006 l 0.08992,0.46354 c -0.103046,-0.027 -0.189332,-0.0688 -0.265617,-0.12713 -0.143411,-0.1097 -0.265709,-0.29603 -0.366903,-0.60358 -0.125901,-0.47814 0.02721,-1.24164 0.241846,-1.86552 0.128878,-0.3746 0.271163,-0.69712 0.364836,-0.89658 z m -4.600236,-0.17828 c 0.183547,0.15395 0.419756,0.24701 0.676445,0.24701 0.256688,0 0.492988,-0.0931 0.676961,-0.24701 l 0.641304,0.1111 c -0.01889,0.19968 -0.06443,0.51069 -0.174149,0.83096 -0.179949,0.52521 -0.496881,1.02517 -1.143083,1.15239 -0.646539,-0.12706 -0.963604,-0.62705 -1.143599,-1.15239 -0.109733,-0.32027 -0.155268,-0.63128 -0.17415,-0.83096 z m 0.677478,0.5116 c -0.146327,-5.9e-4 -0.265332,0.11774 -0.265617,0.26406 -5.82e-4,0.14694 0.118684,0.26619 0.265617,0.26562 0.146126,-5.8e-4 0.264122,-0.11949 0.26355,-0.26562 -2.91e-4,-0.14552 -0.11803,-0.2635 -0.26355,-0.26406 z m 0,0.79323 c -0.146125,-5.8e-4 -0.265047,0.11742 -0.265617,0.26355 -5.82e-4,0.14693 0.118684,0.26619 0.265617,0.26562 0.146126,-5.9e-4 0.264122,-0.11949 0.26355,-0.26562 -5.55e-4,-0.14532 -0.118231,-0.26298 -0.26355,-0.26355 z m -1.586983,2.38125 c 0.151154,0 0.26355,0.11291 0.26355,0.26407 v 0.50591 l -0.529167,-0.17363 v -0.33228 c 0,-0.15116 0.114462,-0.26407 0.265617,-0.26407 z m 0.746724,0 h 1.634009 c 0.151153,0 0.26355,0.11291 0.26355,0.26407 v 3.70468 h -1.851566 v -3.70468 c 0,-0.0923 -0.01645,-0.18138 -0.04599,-0.26407 z m 3.314527,1.41852 c 0.09602,-0.004 0.171048,0.0676 0.171049,0.1695 v 0.79323 c -1e-6,0.11384 -0.089,0.18276 -0.214974,0.16381 l -0.843876,-0.1266 v -0.86765 l 0.857828,-0.12867 c 0.01033,-0.002 0.02004,-0.003 0.02997,-0.004 z m -4.326868,1.63039 h 0.529167 v 0.39067 h -0.529167 z m 5.823934,0.91984 h 1.054716 v 0.52968 h -1.056266 z"
         sodipodi:nodetypes="cscccccccccccsccscccssccsscccscccsccsccccccccssccccccccccccccccccccsccccccccssscsccscccsssssccsccscscccccssccsccccccccccccccsssscccccccccssssccscccscccsccccsccccscccccccccscscccsccccsccscscssssssssccsscscccscsccccccsscccccccccc" />
    </g>
  </g>
</svg>
