<?xml version='1.0' encoding='utf-8'?>
<svg xmlns="http://www.w3.org/2000/svg" viewBox="0 0 597.54 575.62"> <g transform="translate(-87.106 -250.82)"> <path transform="matrix(2.5329 0 0 2.5329 -788.26 70.981)" d="m412.58 256.59-7.667 21 15 10.334-23.333 9.666 39.667 0.334-13.667-20.667 12.333-20z"/> <path transform="matrix(2.5329 0 0 2.5329 -788.26 70.981)" d="m453.58 254.59 10.333 19.334-12.666 24 40.666 0.333-24.333-12.333 11.999-11.667-5.332-22z"/> <path transform="matrix(2.5329 0 0 2.5329 -788.26 70.981)" d="m406.92 199.59 67.334 16.334-0.334-65 18.666-4-16.332-48.667-64.334-1-5.666 44.333z" fill="#fdd89a"/> <path d="m288.87 476.05s96.703 40.524 124.94 24.483l0.85867 45.593s-110.4 0-125.8-70.076z" fill="#fff"/> <path d="m412.14 453.26s-49.813 25.329-64.167-25.329c0 0-27.862 87.807 63.321 55.725 0 0 72.614 45.59 83.587-38.84 0 0-47.28 47.282-82.741 8.4448z"/> <path transform="matrix(2.5329 0 0 2.5329 -788.26 70.981)" d="m474.25 205.25-67.667-9.667 2.667 66.334 67.332-5.334z" fill="#d8ba79"/> <path transform="matrix(2.5329 0 0 2.5329 -788.26 70.981)" d="m416.25 250.59 4.333-9h16.333l-4.666 14.667z" fill="#806646"/> <path transform="matrix(2.5329 0 0 2.5329 -788.26 70.981)" d="m468.25 252.59-12.334 1v-11.333l10-4z" fill="#816647"/> <g transform="matrix(2.5329 0 0 2.5329 -788.26 70.981)" fill="#816647"> <path d="m448.083,220.571 3,.032-.333,32.667-3-.032z" fill="#816647"/> </g> <path d="m252.69 567.94s53.85 84.137 104.27 63.483c0 0 56.203-1.9402 51.968-46.611l-156.24-16.872z" fill="#fff"/> <path d="m165.6 775.78s48.972 0.846 48.126-1.6869c-0.84094-2.5329-11.819-141.84-11.819-141.84l-32.928 6.7528-8.4448 55.725 5.0659 81.054z" fill="#666"/> <g transform="matrix(2.5329 0 0 2.5329 -788.26 70.981)" fill="#fff"> <path d="m381.08,253.159 1.333,21.334-2.994.188-1.333-21.334z"/> <path d="m386.75 244.48 2 28.334-2.992 0.211-2-28.334z"/> </g> <path transform="matrix(2.5329 0 0 2.5329 -788.26 70.981)" d="m367.25 213.59-6 11 29.333 9.334 21.333-14.668-2.666-19.666-19.334 19z" fill="#806646"/> <path transform="matrix(2.5329 0 0 2.5329 -788.26 70.981)" d="m468.92 203.25 39.334 10.667 22.332-8 9.334 7-31.334 15-37.332-12.667z" fill="#806646"/> <path d="m161.59 619.26-25.329-12.665s-21.953-43.06-30.395-18.574c0 0-27.021 2.5304-11.824 18.574 0 0-18.574 31.241 5.0659 26.175 0 0 6.7554 25.329 27.862 0l31.241 11.819 3.3789-25.329z" fill="#fdd89a"/> <path transform="matrix(2.5329 0 0 2.5329 -788.26 70.981)" d="m366.5 213.09-8.667 16.334 10 5.666 9-20z" fill="#565248"/> <path d="m154.63 614.52s-32.085 116.52-27.862 114.83 54.879 2.5329 54.879 2.5329l27.862-118.21-10.132 10.978-44.747-10.132z" fill="#cccccf"/> <g transform="matrix(2.5329 0 0 2.5329 -788.26 70.981)" fill="#fff"> <path d="m377.14 219.5 2.88 0.84-10 34.332-2.88-0.84z"/> <path d="m379.389,256.204-2.944-.566c2.442-12.709 6.319-33.518 6.317-35.253 0,.007.001.15.064.342l2.847-.947c.148.445.456,1.371-6.284,36.424z"/> </g> <path transform="matrix(2.5329 0 0 2.5329 -788.26 70.981)" d="m444.92 208.25-15-12.666-2.334 26.666 15.334-5.666h11.666l19.334 5.334-1.334-25.668-17 12.668z" fill="#d40000"/> <path transform="matrix(2.5329 0 0 2.5329 -788.26 70.981)" d="m456.58 205.25-11.666 0.668-1.666 12.332 13 1z" fill="#fd3301"/> <path transform="matrix(2.5329 0 0 2.5329 -788.26 70.981)" d="m527.73 207.67-15.231 4 8.268 19.332 15.232-4.666z" fill="#565248"/> <path transform="matrix(2.5329 0 0 2.5329 -788.26 70.981)" d="m443.92 121.09a7.167 6.834 0 1 0-14.334 0 7.167 6.834 0 1 0 14.334 0"/> <path transform="matrix(2.5329 0 0 2.5329 -788.26 70.981)" d="m464.58 120.42a7.166 6.833 0 1 0-14.332 0 7.166 6.833 0 1 0 14.332 0"/> <path d="m298.47 596.47-1.8997 19.314s15.831 3.1662 17.414-10.765c0 0-0.94985-9.8151-15.514-8.5487z" fill="#eee"/> <path d="m320 583.17 11.398 8.8653s-20.897 10.132-11.398-8.8653z" fill="#eee"/> <path d="m337.1 607.87s18.047 1.8997 12.031 16.464l-14.668-0.52938 2.6368-15.935z" fill="#eee"/> <path d="m370.03 596.79 14.881-10.132s7.9154 9.4985 0.31661 14.881c0 0-9.1819 8.8653-15.198-4.7493z" fill="#eee"/> <path d="m373.51 622.12 17.731 4.7493s1.8997-6.9656-5.3825-12.348-10.765 3.7994-12.348 7.5988z" fill="#eee"/> <path d="m410.56 592.99 0.63323 19.314s-10.765 2.8496-13.615-8.8653c0 0-0.63324-12.031 12.981-10.448z" fill="#eee"/> <path d="m232.3 460.85s-1.6869-139.31-10.975-153.67l38.838-21.107 4.2224 8.4423s154.51-10.975 159.57-8.4423l-0.84094-10.132s-16.89 2.5329-18.577-6.7553c0 0 22.796-26.173 32.928-16.041 0 0 53.192 37.148-14.352 83.587l-151.13 5.9094s-14.354 107.23-3.3764 115.67l-36.307 2.5329z"/> <path d="m487.28 588.34s100.48 81.9 190.82 17.731c0 0 44.747-75.142-99.631-65.01 0 0-127.49 5.9094-91.186 47.28z" fill="#808285"/> <path d="m503.33 578.21s86.12 65.856 140.16 26.175c0 0 32.082-34.618-13.511-41.373 0 0-148.6-8.4423-126.65 15.198z" fill="#939598"/> <path d="m625.75 559.64-2.5329 32.928s23.637 10.975 31.236 0l0.846-33.774s-16.885-13.508-29.549 0.846z" fill="#8bd7f8"/> <path d="m564.96 492.09-5.9119 89.499s28.703 21.11 47.28 0l13.511-92.032 9.2858-11.819-24.483-3.3789 6.7528-58.258-27.016 10.978 1.6869 48.972-21.104 16.039z" fill="#8bd7f8"/> <path d="m513.46 563.01 1.6869 34.62s16.044 16.885 28.708-1.692l2.5329-29.549s-16.044-16.044-32.928-3.3789z" fill="#8bd7f8"/> <path d="m512.61 566.39s7.5988 38.84 33.774 0c0 0-22.796-17.731-33.774 0z" fill="#fff"/> <path d="m624.91 563.01s21.95 19.423 30.395-4.2199c0 0-17.731-14.352-29.549 0.846" fill="#fff"/> </g> </svg>